<svg xmlns="http://www.w3.org/2000/svg" viewBox="0 0 740 736" width="740" height="736" font-family="'JetBrains Mono','Fira Code','Cascadia Code','Symbols Nerd Font',monospace">
  <defs>
    <style>
      .bg     { fill: #282828; }
      .border { fill: none; stroke: #3c3836; stroke-width: 1; }
      .surface{ fill: #1d2021; stroke: #3c3836; stroke-width: 1; }
      .title  { fill: #928374; font-size: 11px; }
      .dot-r  { fill: #fb4934;   }
      .dot-y  { fill: #fabd2f;}
      .dot-g  { fill: #b8bb26; }
      .text   { fill: #ebdbb2;   font-size: 12px; }
      .muted  { fill: #928374;  font-size: 12px; }
      .accent { fill: #83a598; font-size: 12px; font-weight: 600; }
      .green  { fill: #b8bb26;  font-size: 12px; }
      .yellow { fill: #fabd2f; font-size: 12px; }
      .red    { fill: #fb4934;    font-size: 12px; }
      .head   { fill: #83a598; font-size: 12px; font-weight: 700; }
      .small  { fill: #928374;  font-size: 10px; }
      .logo   { font-size: 11px; line-height: 1; }
      .glyph  { font-size: 13px; }
      .cursor { fill: #ebdbb2; animation: blink 1.05s steps(2,start) infinite; }
      @keyframes blink { to { visibility: hidden; } }
    </style>
  </defs>

  <rect class="bg" x="0" y="0" width="740" height="736" rx="10"/>
  <rect class="border" x="0.5" y="0.5" width="739" height="735" rx="10"/>

  <line x1="0" y1="30" x2="740" y2="30" stroke="#3c3836" stroke-width="1"/>
  <circle class="dot-r" cx="18" cy="15" r="5"/>
  <circle class="dot-y" cx="34" cy="15" r="5"/>
  <circle class="dot-g" cx="50" cy="15" r="5"/>
  <text class="title" x="370.0" y="19" text-anchor="middle">arg9244@github — ~/profile</text>



  <g transform="translate(20 50)">
    <text class="logo" x="0" y="13" fill="#83a598" xml:space="preserve">       /\       </text>
    <text class="logo" x="0" y="26" fill="#83a598" xml:space="preserve">      /  \      </text>
    <text class="logo" x="0" y="39" fill="#83a598" xml:space="preserve">     /\   \     </text>
    <text class="logo" x="0" y="52" fill="#83a598" xml:space="preserve">    /      \    </text>
    <text class="logo" x="0" y="65" fill="#83a598" xml:space="preserve">   /   ,,   \   </text>
    <text class="logo" x="0" y="78" fill="#83a598" xml:space="preserve">  /   |  |   \  </text>
    <text class="logo" x="0" y="91" fill="#928374" xml:space="preserve"> / _-&#39;    `-_ \ </text>
    <text class="logo" x="0" y="104" fill="#928374" xml:space="preserve">/_-&#39;        `-_\</text>
  </g>

  <g transform="translate(150 50)">
    <text class="head" x="0" y="14">arg9244</text>
    <text class="muted" x="0" y="18">
      <tspan x="0" dy="14" xml:space="preserve">───────</tspan>
    </text>
    <text class="text" x="0" y="50">Linux Enthusiast DevOps Engineer</text>
    <text class="accent" x="0" y="68">↗ <tspan class="muted" dx="2">github.com/arg9244</tspan></text>
    <text x="0" y="84">
        <tspan class="accent">Email</tspan>
    </text>
  </g>


  <rect class="surface" x="20" y="176" width="700" height="168" rx="6"/>
  <text class="small" x="32" y="190">┌─ system ─</text>
  <text class="glyph" x="32"  y="208" fill="#83a598">◆</text>
  <text class="accent" x="56"  y="208">OS</text>
  <text class="text"  x="170" y="208">CachyOS</text>
  <text class="glyph" x="32"  y="226" fill="#d3869b">▣</text>
  <text class="accent" x="56"  y="226">WM</text>
  <text class="text"  x="170" y="226">Niri + Noctalia</text>
  <text class="glyph" x="32"  y="244" fill="#b8bb26">❯</text>
  <text class="accent" x="56"  y="244">Shell</text>
  <text class="text"  x="170" y="244">fish</text>
  <text class="glyph" x="32"  y="262" fill="#83a598">▶</text>
  <text class="accent" x="56"  y="262">Terminal</text>
  <text class="text"  x="170" y="262">Kitty</text>
  <text class="glyph" x="32"  y="280" fill="#fabd2f">✎</text>
  <text class="accent" x="56"  y="280">Editor</text>
  <text class="text"  x="170" y="280">Zed</text>
  <text class="glyph" x="32"  y="298" fill="#fb4934">■</text>
  <text class="accent" x="56"  y="298">CPU</text>
  <text class="text"  x="170" y="298">AMD Ryzen 5 3600</text>
  <text class="glyph" x="32"  y="316" fill="#d3869b">▤</text>
  <text class="accent" x="56"  y="316">GPU</text>
  <text class="text"  x="170" y="316">AMD Radeon RX 6800</text>
  <text class="glyph" x="32"  y="334" fill="#83a598">•</text>
  <text class="accent" x="56"  y="334">RAM</text>
  <text class="text"  x="170" y="334">32GB DDR4</text>

  <rect class="surface" x="20" y="356" width="700" height="132" rx="6"/>
  <text class="small" x="32" y="370">┌─ ~/projects ─</text>
  <circle cx="38" cy="384" r="5" fill="#3178c6"/>
  <text class="accent" x="50" y="388">tweakfox</text>
  <text class="yellow" x="520" y="388">★ 0</text>
  <text class="muted"  x="570" y="388">TypeScript</text>
  <circle cx="38" cy="406" r="5" fill="#3572A5"/>
  <text class="accent" x="50" y="410">arg9244</text>
  <text class="yellow" x="520" y="410">★ 0</text>
  <text class="muted"  x="570" y="410">Python</text>
  <circle cx="38" cy="428" r="5" fill="#3178c6"/>
  <text class="accent" x="50" y="432">browser-benchmark</text>
  <text class="yellow" x="520" y="432">★ 0</text>
  <text class="muted"  x="570" y="432">TypeScript</text>
  <circle cx="38" cy="450" r="5" fill="#dea584"/>
  <text class="accent" x="50" y="454">ggum</text>
  <text class="yellow" x="520" y="454">★ 0</text>
  <text class="muted"  x="570" y="454">Rust</text>
  <circle cx="38" cy="472" r="5" fill="#3572A5"/>
  <text class="accent" x="50" y="476">V2R-Subs</text>
  <text class="yellow" x="520" y="476">★ 0</text>
  <text class="muted"  x="570" y="476">Python</text>

  <text class="text" x="20" y="514">
    <tspan class="muted" xml:space="preserve">  repos </tspan><tspan class="accent">10</tspan>
    <tspan class="muted" xml:space="preserve">    stars </tspan><tspan class="yellow">0</tspan>
    <tspan class="muted" xml:space="preserve">    followers </tspan><tspan class="green">0</tspan>
    <tspan class="muted" xml:space="preserve">    following </tspan><tspan class="purple" fill="#d3869b">0</tspan>
  </text>

  <g transform="translate(20 520)"><svg width="700.0" height="152.72727272727272" viewBox="-16 -32 880 192" preserveAspectRatio="xMidYMid meet">
  <defs>
    <style type="text/css">
.c{shape-rendering:geometricPrecision;fill:#282828;stroke-width:1px;stroke:#3c38360a;animation:none 21900ms linear infinite;width:12px;height:12px}
@keyframes c0{12.32%{fill:#3c3836}
12.34%,100%{fill:#282828}}
.c.c0{fill:#3c3836;animation-name:c0}
@keyframes c1{12.78%{fill:#3c3836}
12.8%,100%{fill:#282828}}
.c.c1{fill:#3c3836;animation-name:c1}
@keyframes c2{20.08%{fill:#3c3836}
20.1%,100%{fill:#282828}}
.c.c2{fill:#3c3836;animation-name:c2}
@keyframes c3{18.71%{fill:#3c3836}
18.73%,100%{fill:#282828}}
.c.c3{fill:#3c3836;animation-name:c3}
@keyframes c4{18.25%{fill:#3c3836}
18.27%,100%{fill:#282828}}
.c.c4{fill:#3c3836;animation-name:c4}
@keyframes c5{79.44%{fill:#665c54}
79.46%,100%{fill:#282828}}
.c.c5{fill:#665c54;animation-name:c5}
@keyframes c6{78.99%{fill:#665c54}
79.01%,100%{fill:#282828}}
.c.c6{fill:#665c54;animation-name:c6}
@keyframes c7{82.18%{fill:#b8bb26}
82.2%,100%{fill:#282828}}
.c.c7{fill:#b8bb26;animation-name:c7}
@keyframes c8{82.64%{fill:#b8bb26}
82.66%,100%{fill:#282828}}
.c.c8{fill:#b8bb26;animation-name:c8}
@keyframes c9{75.79%{fill:#504945}
75.81%,100%{fill:#282828}}
.c.c9{fill:#504945;animation-name:c9}
@keyframes ca{80.36%{fill:#665c54}
80.38%,100%{fill:#282828}}
.c.ca{fill:#665c54;animation-name:ca}
@keyframes cb{25.1%{fill:#3c3836}
25.12%,100%{fill:#282828}}
.c.cb{fill:#3c3836;animation-name:cb}
@keyframes cc{25.56%{fill:#3c3836}
25.58%,100%{fill:#282828}}
.c.cc{fill:#3c3836;animation-name:cc}
@keyframes cd{75.33%{fill:#504945}
75.35%,100%{fill:#282828}}
.c.cd{fill:#504945;animation-name:cd}
@keyframes ce{76.7%{fill:#504945}
76.72%,100%{fill:#282828}}
.c.ce{fill:#504945;animation-name:ce}
@keyframes cf{72.59%{fill:#504945}
72.61%,100%{fill:#282828}}
.c.cf{fill:#504945;animation-name:cf}
@keyframes cg{73.05%{fill:#504945}
73.07%,100%{fill:#282828}}
.c.cg{fill:#504945;animation-name:cg}
@keyframes ch{24.19%{fill:#3c3836}
24.21%,100%{fill:#282828}}
.c.ch{fill:#3c3836;animation-name:ch}
@keyframes ci{24.65%{fill:#3c3836}
24.67%,100%{fill:#282828}}
.c.ci{fill:#3c3836;animation-name:ci}
@keyframes cj{26.02%{fill:#3c3836}
26.04%,100%{fill:#282828}}
.c.cj{fill:#3c3836;animation-name:cj}
@keyframes ck{26.47%{fill:#3c3836}
26.49%,100%{fill:#282828}}
.c.ck{fill:#3c3836;animation-name:ck}
@keyframes cl{59.35%{fill:#3c3836}
59.37%,100%{fill:#282828}}
.c.cl{fill:#3c3836;animation-name:cl}
@keyframes cm{58.89%{fill:#3c3836}
58.91%,100%{fill:#282828}}
.c.cm{fill:#3c3836;animation-name:cm}
@keyframes cn{58.44%{fill:#3c3836}
58.46%,100%{fill:#282828}}
.c.cn{fill:#3c3836;animation-name:cn}
@keyframes co{29.67%{fill:#3c3836}
29.69%,100%{fill:#282828}}
.c.co{fill:#3c3836;animation-name:co}
@keyframes cp{30.13%{fill:#3c3836}
30.15%,100%{fill:#282828}}
.c.cp{fill:#3c3836;animation-name:cp}
@keyframes cq{59.81%{fill:#3c3836}
59.83%,100%{fill:#282828}}
.c.cq{fill:#3c3836;animation-name:cq}
@keyframes cr{54.33%{fill:#3c3836}
54.35%,100%{fill:#282828}}
.c.cr{fill:#3c3836;animation-name:cr}
@keyframes cs{51.59%{fill:#3c3836}
51.61%,100%{fill:#282828}}
.c.cs{fill:#3c3836;animation-name:cs}
@keyframes ct{52.04%{fill:#3c3836}
52.06%,100%{fill:#282828}}
.c.ct{fill:#3c3836;animation-name:ct}
@keyframes cu{53.41%{fill:#3c3836}
53.43%,100%{fill:#282828}}
.c.cu{fill:#3c3836;animation-name:cu}
@keyframes cv{55.24%{fill:#3c3836}
55.26%,100%{fill:#282828}}
.c.cv{fill:#3c3836;animation-name:cv}
@keyframes cw{50.67%{fill:#3c3836}
50.69%,100%{fill:#282828}}
.c.cw{fill:#3c3836;animation-name:cw}
@keyframes cx{51.13%{fill:#3c3836}
51.15%,100%{fill:#282828}}
.c.cx{fill:#3c3836;animation-name:cx}
@keyframes cy{52.5%{fill:#3c3836}
52.52%,100%{fill:#282828}}
.c.cy{fill:#3c3836;animation-name:cy}
@keyframes cz{52.96%{fill:#3c3836}
52.98%,100%{fill:#282828}}
.c.cz{fill:#3c3836;animation-name:cz}
@keyframes c10{55.7%{fill:#3c3836}
55.72%,100%{fill:#282828}}
.c.c10{fill:#3c3836;animation-name:c10}
@keyframes c11{31.5%{fill:#3c3836}
31.52%,100%{fill:#282828}}
.c.c11{fill:#3c3836;animation-name:c11}
@keyframes c12{50.22%{fill:#3c3836}
50.24%,100%{fill:#282828}}
.c.c12{fill:#3c3836;animation-name:c12}
@keyframes c13{47.02%{fill:#3c3836}
47.04%,100%{fill:#282828}}
.c.c13{fill:#3c3836;animation-name:c13}
@keyframes c14{46.57%{fill:#3c3836}
46.59%,100%{fill:#282828}}
.c.c14{fill:#3c3836;animation-name:c14}
@keyframes c15{45.65%{fill:#3c3836}
45.67%,100%{fill:#282828}}
.c.c15{fill:#3c3836;animation-name:c15}
@keyframes c16{45.2%{fill:#3c3836}
45.22%,100%{fill:#282828}}
.c.c16{fill:#3c3836;animation-name:c16}
@keyframes c17{31.95%{fill:#3c3836}
31.97%,100%{fill:#282828}}
.c.c17{fill:#3c3836;animation-name:c17}
@keyframes c18{49.76%{fill:#3c3836}
49.78%,100%{fill:#282828}}
.c.c18{fill:#3c3836;animation-name:c18}
@keyframes c19{47.48%{fill:#3c3836}
47.5%,100%{fill:#282828}}
.c.c19{fill:#3c3836;animation-name:c19}
@keyframes c1a{35.15%{fill:#3c3836}
35.17%,100%{fill:#282828}}
.c.c1a{fill:#3c3836;animation-name:c1a}
@keyframes c1b{34.69%{fill:#3c3836}
34.71%,100%{fill:#282828}}
.c.c1b{fill:#3c3836;animation-name:c1b}
@keyframes c1c{34.24%{fill:#3c3836}
34.26%,100%{fill:#282828}}
.c.c1c{fill:#3c3836;animation-name:c1c}
@keyframes c1d{32.87%{fill:#3c3836}
32.89%,100%{fill:#282828}}
.c.c1d{fill:#3c3836;animation-name:c1d}
@keyframes c1e{32.41%{fill:#3c3836}
32.43%,100%{fill:#282828}}
.c.c1e{fill:#3c3836;animation-name:c1e}
@keyframes c1f{64.83%{fill:#504945}
64.85%,100%{fill:#282828}}
.c.c1f{fill:#504945;animation-name:c1f}
@keyframes c1g{47.94%{fill:#3c3836}
47.96%,100%{fill:#282828}}
.c.c1g{fill:#3c3836;animation-name:c1g}
@keyframes c1h{35.61%{fill:#3c3836}
35.63%,100%{fill:#282828}}
.c.c1h{fill:#3c3836;animation-name:c1h}
@keyframes c1i{33.32%{fill:#3c3836}
33.34%,100%{fill:#282828}}
.c.c1i{fill:#3c3836;animation-name:c1i}
@keyframes c1j{64.37%{fill:#504945}
64.39%,100%{fill:#282828}}
.c.c1j{fill:#504945;animation-name:c1j}
@keyframes c1k{65.74%{fill:#504945}
65.76%,100%{fill:#282828}}
.c.c1k{fill:#504945;animation-name:c1k}
@keyframes c1l{36.06%{fill:#3c3836}
36.08%,100%{fill:#282828}}
.c.c1l{fill:#3c3836;animation-name:c1l}
@keyframes c1m{63.92%{fill:#3c3836}
63.94%,100%{fill:#282828}}
.c.c1m{fill:#3c3836;animation-name:c1m}
@keyframes c1n{36.98%{fill:#3c3836}
37%,100%{fill:#282828}}
.c.c1n{fill:#3c3836;animation-name:c1n}
@keyframes c1o{41.09%{fill:#3c3836}
41.11%,100%{fill:#282828}}
.c.c1o{fill:#3c3836;animation-name:c1o}
@keyframes c1p{41.54%{fill:#3c3836}
41.56%,100%{fill:#282828}}
.c.c1p{fill:#3c3836;animation-name:c1p}
@keyframes c1q{42%{fill:#3c3836}
42.02%,100%{fill:#282828}}
.c.c1q{fill:#3c3836;animation-name:c1q}
@keyframes c1r{42.46%{fill:#3c3836}
42.48%,100%{fill:#282828}}
.c.c1r{fill:#3c3836;animation-name:c1r}
@keyframes c1s{38.35%{fill:#3c3836}
38.37%,100%{fill:#282828}}
.c.c1s{fill:#3c3836;animation-name:c1s}
@keyframes c1t{37.89%{fill:#3c3836}
37.91%,100%{fill:#282828}}
.c.c1t{fill:#3c3836;animation-name:c1t}
@keyframes c1u{37.43%{fill:#3c3836}
37.45%,100%{fill:#282828}}
.c.c1u{fill:#3c3836;animation-name:c1u}
@keyframes c1v{40.63%{fill:#3c3836}
40.65%,100%{fill:#282828}}
.c.c1v{fill:#3c3836;animation-name:c1v}
@keyframes c1w{38.8%{fill:#3c3836}
38.82%,100%{fill:#282828}}
.c.c1w{fill:#3c3836;animation-name:c1w}
.u{transform-origin:0 0;transform:scale(0,1);animation:none linear 21900ms infinite}
@keyframes u0{12.32%{transform:scale(0.000,1)}
12.34%,12.78%{transform:scale(0.018,1)}
12.8%,18.25%{transform:scale(0.036,1)}
18.27%,18.71%{transform:scale(0.054,1)}
18.73%,20.08%{transform:scale(0.071,1)}
20.1%,24.19%{transform:scale(0.089,1)}
24.21%,24.65%{transform:scale(0.107,1)}
24.67%,25.1%{transform:scale(0.125,1)}
25.12%,25.56%{transform:scale(0.143,1)}
25.58%,26.02%{transform:scale(0.161,1)}
26.04%,26.47%{transform:scale(0.179,1)}
26.49%,29.67%{transform:scale(0.196,1)}
29.69%,30.13%{transform:scale(0.214,1)}
30.15%,31.5%{transform:scale(0.232,1)}
31.52%,31.95%{transform:scale(0.250,1)}
31.97%,32.41%{transform:scale(0.268,1)}
32.43%,32.87%{transform:scale(0.286,1)}
32.89%,33.32%{transform:scale(0.304,1)}
33.34%,34.24%{transform:scale(0.321,1)}
34.26%,34.69%{transform:scale(0.339,1)}
34.71%,35.15%{transform:scale(0.357,1)}
35.17%,35.61%{transform:scale(0.375,1)}
35.63%,36.06%{transform:scale(0.393,1)}
36.08%,36.98%{transform:scale(0.411,1)}
37%,37.43%{transform:scale(0.429,1)}
37.45%,37.89%{transform:scale(0.446,1)}
37.91%,38.35%{transform:scale(0.464,1)}
38.37%,38.8%{transform:scale(0.482,1)}
38.82%,40.63%{transform:scale(0.500,1)}
40.65%,41.09%{transform:scale(0.518,1)}
41.11%,41.54%{transform:scale(0.536,1)}
41.56%,42%{transform:scale(0.554,1)}
42.02%,42.46%{transform:scale(0.571,1)}
42.48%,45.2%{transform:scale(0.589,1)}
45.22%,45.65%{transform:scale(0.607,1)}
45.67%,46.57%{transform:scale(0.625,1)}
46.59%,47.02%{transform:scale(0.643,1)}
47.04%,47.48%{transform:scale(0.661,1)}
47.5%,47.94%{transform:scale(0.679,1)}
47.96%,49.76%{transform:scale(0.696,1)}
49.78%,50.22%{transform:scale(0.714,1)}
50.24%,50.67%{transform:scale(0.732,1)}
50.69%,51.13%{transform:scale(0.750,1)}
51.15%,51.59%{transform:scale(0.768,1)}
51.61%,52.04%{transform:scale(0.786,1)}
52.06%,52.5%{transform:scale(0.804,1)}
52.52%,52.96%{transform:scale(0.821,1)}
52.98%,53.41%{transform:scale(0.839,1)}
53.43%,54.33%{transform:scale(0.857,1)}
54.35%,55.24%{transform:scale(0.875,1)}
55.26%,55.7%{transform:scale(0.893,1)}
55.72%,58.44%{transform:scale(0.911,1)}
58.46%,58.89%{transform:scale(0.929,1)}
58.91%,59.35%{transform:scale(0.946,1)}
59.37%,59.81%{transform:scale(0.964,1)}
59.83%,63.92%{transform:scale(0.982,1)}
63.94%,100%{transform:scale(1.000,1)}}
.u.u0{fill:#3c3836;animation-name:u0;transform-origin:0.0px 0}
@keyframes u1{64.37%{transform:scale(0.000,1)}
64.39%,64.83%{transform:scale(0.125,1)}
64.85%,65.74%{transform:scale(0.250,1)}
65.76%,72.59%{transform:scale(0.375,1)}
72.61%,73.05%{transform:scale(0.500,1)}
73.07%,75.33%{transform:scale(0.625,1)}
75.35%,75.79%{transform:scale(0.750,1)}
75.81%,76.7%{transform:scale(0.875,1)}
76.72%,100%{transform:scale(1.000,1)}}
.u.u1{fill:#504945;animation-name:u1;transform-origin:688.2px 0}
@keyframes u2{78.99%{transform:scale(0.000,1)}
79.01%,79.44%{transform:scale(0.333,1)}
79.46%,80.36%{transform:scale(0.667,1)}
80.38%,100%{transform:scale(1.000,1)}}
.u.u2{fill:#665c54;animation-name:u2;transform-origin:786.6px 0}
@keyframes u3{82.18%{transform:scale(0.000,1)}
82.2%,82.64%{transform:scale(0.500,1)}
82.66%,100%{transform:scale(1.000,1)}}
.u.u3{fill:#b8bb26;animation-name:u3;transform-origin:823.4px 0}
.s{shape-rendering:geometricPrecision;fill:#b8bb26;animation:none linear 21900ms infinite}
@keyframes s0{0%,99.54%{transform:translate(0px,-16px)}
0.46%{transform:translate(0px,0px)}
10.05%{transform:translate(336px,0px)}
12.79%{transform:translate(336px,96px)}
17.35%{transform:translate(496px,96px)}
20.09%{transform:translate(496px,0px)}
20.55%,80.82%{transform:translate(512px,0px)}
21%{transform:translate(512px,-16px)}
22.37%{transform:translate(560px,-16px)}
23.74%{transform:translate(560px,32px)}
24.2%{transform:translate(544px,32px)}
24.66%{transform:translate(544px,48px)}
25.11%{transform:translate(528px,48px)}
25.57%{transform:translate(528px,64px)}
26.03%{transform:translate(544px,64px)}
26.48%{transform:translate(544px,80px)}
29.68%{transform:translate(656px,80px)}
30.14%{transform:translate(656px,96px)}
32.42%{transform:translate(736px,96px)}
32.88%{transform:translate(736px,80px)}
33.33%{transform:translate(752px,80px)}
33.79%{transform:translate(752px,64px)}
34.25%{transform:translate(736px,64px)}
35.16%,48.86%{transform:translate(736px,32px)}
37.44%{transform:translate(816px,32px)}
38.36%{transform:translate(816px,0px)}
38.81%{transform:translate(832px,0px)}
39.27%{transform:translate(832px,16px)}
39.73%{transform:translate(816px,16px)}
40.64%{transform:translate(816px,48px)}
41.1%{transform:translate(800px,48px)}
42.47%{transform:translate(800px,96px)}
42.92%{transform:translate(784px,96px)}
43.38%{transform:translate(784px,80px)}
45.21%{transform:translate(720px,80px)}
47.03%{transform:translate(720px,16px)}
47.95%,65.3%{transform:translate(752px,16px)}
48.4%{transform:translate(752px,32px)}
49.77%,61.64%{transform:translate(736px,0px)}
50.68%{transform:translate(704px,0px)}
51.14%{transform:translate(704px,16px)}
51.6%{transform:translate(688px,16px)}
52.05%{transform:translate(688px,32px)}
52.51%,57.08%{transform:translate(704px,32px)}
52.97%{transform:translate(704px,48px)}
53.88%{transform:translate(672px,48px)}
54.34%{transform:translate(672px,64px)}
54.79%{transform:translate(688px,64px)}
55.25%{transform:translate(688px,80px)}
55.71%{transform:translate(704px,80px)}
58.45%{transform:translate(656px,32px)}
59.36%{transform:translate(656px,0px)}
62.1%{transform:translate(736px,-16px)}
63.47%{transform:translate(784px,-16px)}
63.93%{transform:translate(784px,0px)}
64.84%{transform:translate(752px,0px)}
65.75%{transform:translate(768px,16px)}
66.21%{transform:translate(768px,0px)}
72.6%{transform:translate(544px,0px)}
73.06%{transform:translate(544px,16px)}
73.52%,79.91%{transform:translate(528px,16px)}
75.34%{transform:translate(528px,80px)}
75.8%{transform:translate(512px,80px)}
76.26%{transform:translate(512px,96px)}
76.71%{transform:translate(528px,96px)}
78.54%{transform:translate(528px,32px)}
79%{transform:translate(512px,32px)}
79.45%{transform:translate(512px,16px)}
80.37%{transform:translate(528px,0px)}
82.65%{transform:translate(512px,64px)}
93.61%{transform:translate(128px,64px)}
94.06%{transform:translate(128px,48px)}
94.98%{transform:translate(96px,48px)}
95.43%{transform:translate(96px,32px)}
95.89%{transform:translate(80px,32px)}
96.35%{transform:translate(80px,16px)}
96.8%{transform:translate(64px,16px)}
97.26%{transform:translate(64px,0px)}
97.72%{transform:translate(48px,0px)}
98.17%{transform:translate(48px,-16px)}}
.s.s0{transform:translate(0px,-16px);animation-name:s0}
@keyframes s1{0%,99.54%{transform:translate(16px,-16px)}
0.46%{transform:translate(0px,-16px)}
0.91%{transform:translate(0px,0px)}
10.5%{transform:translate(336px,0px)}
13.24%{transform:translate(336px,96px)}
17.81%{transform:translate(496px,96px)}
20.55%{transform:translate(496px,0px)}
21%,81.28%{transform:translate(512px,0px)}
21.46%{transform:translate(512px,-16px)}
22.83%{transform:translate(560px,-16px)}
24.2%{transform:translate(560px,32px)}
24.66%{transform:translate(544px,32px)}
25.11%{transform:translate(544px,48px)}
25.57%{transform:translate(528px,48px)}
26.03%{transform:translate(528px,64px)}
26.48%{transform:translate(544px,64px)}
26.94%{transform:translate(544px,80px)}
30.14%{transform:translate(656px,80px)}
30.59%{transform:translate(656px,96px)}
32.88%{transform:translate(736px,96px)}
33.33%{transform:translate(736px,80px)}
33.79%{transform:translate(752px,80px)}
34.25%{transform:translate(752px,64px)}
34.7%{transform:translate(736px,64px)}
35.62%,49.32%{transform:translate(736px,32px)}
37.9%{transform:translate(816px,32px)}
38.81%{transform:translate(816px,0px)}
39.27%{transform:translate(832px,0px)}
39.73%{transform:translate(832px,16px)}
40.18%{transform:translate(816px,16px)}
41.1%{transform:translate(816px,48px)}
41.55%{transform:translate(800px,48px)}
42.92%{transform:translate(800px,96px)}
43.38%{transform:translate(784px,96px)}
43.84%{transform:translate(784px,80px)}
45.66%{transform:translate(720px,80px)}
47.49%{transform:translate(720px,16px)}
48.4%,65.75%{transform:translate(752px,16px)}
48.86%{transform:translate(752px,32px)}
50.23%,62.1%{transform:translate(736px,0px)}
51.14%{transform:translate(704px,0px)}
51.6%{transform:translate(704px,16px)}
52.05%{transform:translate(688px,16px)}
52.51%{transform:translate(688px,32px)}
52.97%,57.53%{transform:translate(704px,32px)}
53.42%{transform:translate(704px,48px)}
54.34%{transform:translate(672px,48px)}
54.79%{transform:translate(672px,64px)}
55.25%{transform:translate(688px,64px)}
55.71%{transform:translate(688px,80px)}
56.16%{transform:translate(704px,80px)}
58.9%{transform:translate(656px,32px)}
59.82%{transform:translate(656px,0px)}
62.56%{transform:translate(736px,-16px)}
63.93%{transform:translate(784px,-16px)}
64.38%{transform:translate(784px,0px)}
65.3%{transform:translate(752px,0px)}
66.21%{transform:translate(768px,16px)}
66.67%{transform:translate(768px,0px)}
73.06%{transform:translate(544px,0px)}
73.52%{transform:translate(544px,16px)}
73.97%,80.37%{transform:translate(528px,16px)}
75.8%{transform:translate(528px,80px)}
76.26%{transform:translate(512px,80px)}
76.71%{transform:translate(512px,96px)}
77.17%{transform:translate(528px,96px)}
79%{transform:translate(528px,32px)}
79.45%{transform:translate(512px,32px)}
79.91%{transform:translate(512px,16px)}
80.82%{transform:translate(528px,0px)}
83.11%{transform:translate(512px,64px)}
94.06%{transform:translate(128px,64px)}
94.52%{transform:translate(128px,48px)}
95.43%{transform:translate(96px,48px)}
95.89%{transform:translate(96px,32px)}
96.35%{transform:translate(80px,32px)}
96.8%{transform:translate(80px,16px)}
97.26%{transform:translate(64px,16px)}
97.72%{transform:translate(64px,0px)}
98.17%{transform:translate(48px,0px)}
98.63%{transform:translate(48px,-16px)}}
.s.s1{transform:translate(16px,-16px);animation-name:s1}
@keyframes s2{0%,99.54%{transform:translate(32px,-16px)}
0.91%{transform:translate(0px,-16px)}
1.37%{transform:translate(0px,0px)}
10.96%{transform:translate(336px,0px)}
13.7%{transform:translate(336px,96px)}
18.26%{transform:translate(496px,96px)}
21%{transform:translate(496px,0px)}
21.46%,81.74%{transform:translate(512px,0px)}
21.92%{transform:translate(512px,-16px)}
23.29%{transform:translate(560px,-16px)}
24.66%{transform:translate(560px,32px)}
25.11%{transform:translate(544px,32px)}
25.57%{transform:translate(544px,48px)}
26.03%{transform:translate(528px,48px)}
26.48%{transform:translate(528px,64px)}
26.94%{transform:translate(544px,64px)}
27.4%{transform:translate(544px,80px)}
30.59%{transform:translate(656px,80px)}
31.05%{transform:translate(656px,96px)}
33.33%{transform:translate(736px,96px)}
33.79%{transform:translate(736px,80px)}
34.25%{transform:translate(752px,80px)}
34.7%{transform:translate(752px,64px)}
35.16%{transform:translate(736px,64px)}
36.07%,49.77%{transform:translate(736px,32px)}
38.36%{transform:translate(816px,32px)}
39.27%{transform:translate(816px,0px)}
39.73%{transform:translate(832px,0px)}
40.18%{transform:translate(832px,16px)}
40.64%{transform:translate(816px,16px)}
41.55%{transform:translate(816px,48px)}
42.01%{transform:translate(800px,48px)}
43.38%{transform:translate(800px,96px)}
43.84%{transform:translate(784px,96px)}
44.29%{transform:translate(784px,80px)}
46.12%{transform:translate(720px,80px)}
47.95%{transform:translate(720px,16px)}
48.86%,66.21%{transform:translate(752px,16px)}
49.32%{transform:translate(752px,32px)}
50.68%,62.56%{transform:translate(736px,0px)}
51.6%{transform:translate(704px,0px)}
52.05%{transform:translate(704px,16px)}
52.51%{transform:translate(688px,16px)}
52.97%{transform:translate(688px,32px)}
53.42%,57.99%{transform:translate(704px,32px)}
53.88%{transform:translate(704px,48px)}
54.79%{transform:translate(672px,48px)}
55.25%{transform:translate(672px,64px)}
55.71%{transform:translate(688px,64px)}
56.16%{transform:translate(688px,80px)}
56.62%{transform:translate(704px,80px)}
59.36%{transform:translate(656px,32px)}
60.27%{transform:translate(656px,0px)}
63.01%{transform:translate(736px,-16px)}
64.38%{transform:translate(784px,-16px)}
64.84%{transform:translate(784px,0px)}
65.75%{transform:translate(752px,0px)}
66.67%{transform:translate(768px,16px)}
67.12%{transform:translate(768px,0px)}
73.52%{transform:translate(544px,0px)}
73.97%{transform:translate(544px,16px)}
74.43%,80.82%{transform:translate(528px,16px)}
76.26%{transform:translate(528px,80px)}
76.71%{transform:translate(512px,80px)}
77.17%{transform:translate(512px,96px)}
77.63%{transform:translate(528px,96px)}
79.45%{transform:translate(528px,32px)}
79.91%{transform:translate(512px,32px)}
80.37%{transform:translate(512px,16px)}
81.28%{transform:translate(528px,0px)}
83.56%{transform:translate(512px,64px)}
94.52%{transform:translate(128px,64px)}
94.98%{transform:translate(128px,48px)}
95.89%{transform:translate(96px,48px)}
96.35%{transform:translate(96px,32px)}
96.8%{transform:translate(80px,32px)}
97.26%{transform:translate(80px,16px)}
97.72%{transform:translate(64px,16px)}
98.17%{transform:translate(64px,0px)}
98.63%{transform:translate(48px,0px)}
99.09%{transform:translate(48px,-16px)}}
.s.s2{transform:translate(32px,-16px);animation-name:s2}
@keyframes s3{0%,99.54%{transform:translate(48px,-16px)}
1.37%{transform:translate(0px,-16px)}
1.83%{transform:translate(0px,0px)}
11.42%{transform:translate(336px,0px)}
14.16%{transform:translate(336px,96px)}
18.72%{transform:translate(496px,96px)}
21.46%{transform:translate(496px,0px)}
21.92%,82.19%{transform:translate(512px,0px)}
22.37%{transform:translate(512px,-16px)}
23.74%{transform:translate(560px,-16px)}
25.11%{transform:translate(560px,32px)}
25.57%{transform:translate(544px,32px)}
26.03%{transform:translate(544px,48px)}
26.48%{transform:translate(528px,48px)}
26.94%{transform:translate(528px,64px)}
27.4%{transform:translate(544px,64px)}
27.85%{transform:translate(544px,80px)}
31.05%{transform:translate(656px,80px)}
31.51%{transform:translate(656px,96px)}
33.79%{transform:translate(736px,96px)}
34.25%{transform:translate(736px,80px)}
34.7%{transform:translate(752px,80px)}
35.16%{transform:translate(752px,64px)}
35.62%{transform:translate(736px,64px)}
36.53%,50.23%{transform:translate(736px,32px)}
38.81%{transform:translate(816px,32px)}
39.73%{transform:translate(816px,0px)}
40.18%{transform:translate(832px,0px)}
40.64%{transform:translate(832px,16px)}
41.1%{transform:translate(816px,16px)}
42.01%{transform:translate(816px,48px)}
42.47%{transform:translate(800px,48px)}
43.84%{transform:translate(800px,96px)}
44.29%{transform:translate(784px,96px)}
44.75%{transform:translate(784px,80px)}
46.58%{transform:translate(720px,80px)}
48.4%{transform:translate(720px,16px)}
49.32%,66.67%{transform:translate(752px,16px)}
49.77%{transform:translate(752px,32px)}
51.14%,63.01%{transform:translate(736px,0px)}
52.05%{transform:translate(704px,0px)}
52.51%{transform:translate(704px,16px)}
52.97%{transform:translate(688px,16px)}
53.42%{transform:translate(688px,32px)}
53.88%,58.45%{transform:translate(704px,32px)}
54.34%{transform:translate(704px,48px)}
55.25%{transform:translate(672px,48px)}
55.71%{transform:translate(672px,64px)}
56.16%{transform:translate(688px,64px)}
56.62%{transform:translate(688px,80px)}
57.08%{transform:translate(704px,80px)}
59.82%{transform:translate(656px,32px)}
60.73%{transform:translate(656px,0px)}
63.47%{transform:translate(736px,-16px)}
64.84%{transform:translate(784px,-16px)}
65.3%{transform:translate(784px,0px)}
66.21%{transform:translate(752px,0px)}
67.12%{transform:translate(768px,16px)}
67.58%{transform:translate(768px,0px)}
73.97%{transform:translate(544px,0px)}
74.43%{transform:translate(544px,16px)}
74.89%,81.28%{transform:translate(528px,16px)}
76.71%{transform:translate(528px,80px)}
77.17%{transform:translate(512px,80px)}
77.63%{transform:translate(512px,96px)}
78.08%{transform:translate(528px,96px)}
79.91%{transform:translate(528px,32px)}
80.37%{transform:translate(512px,32px)}
80.82%{transform:translate(512px,16px)}
81.74%{transform:translate(528px,0px)}
84.02%{transform:translate(512px,64px)}
94.98%{transform:translate(128px,64px)}
95.43%{transform:translate(128px,48px)}
96.35%{transform:translate(96px,48px)}
96.8%{transform:translate(96px,32px)}
97.26%{transform:translate(80px,32px)}
97.72%{transform:translate(80px,16px)}
98.17%{transform:translate(64px,16px)}
98.63%{transform:translate(64px,0px)}
99.09%{transform:translate(48px,0px)}}
.s.s3{transform:translate(48px,-16px);animation-name:s3}</style>
  </defs>
  <g>
    <rect class="c" x="2" y="2" rx="2" ry="2"/><rect class="c" x="2" y="18" rx="2" ry="2"/><rect class="c" x="2" y="34" rx="2" ry="2"/><rect class="c" x="2" y="50" rx="2" ry="2"/><rect class="c" x="2" y="66" rx="2" ry="2"/><rect class="c" x="2" y="82" rx="2" ry="2"/><rect class="c" x="2" y="98" rx="2" ry="2"/><rect class="c" x="18" y="2" rx="2" ry="2"/><rect class="c" x="18" y="18" rx="2" ry="2"/><rect class="c" x="18" y="34" rx="2" ry="2"/><rect class="c" x="18" y="50" rx="2" ry="2"/><rect class="c" x="18" y="66" rx="2" ry="2"/><rect class="c" x="18" y="82" rx="2" ry="2"/><rect class="c" x="18" y="98" rx="2" ry="2"/><rect class="c" x="34" y="2" rx="2" ry="2"/><rect class="c" x="34" y="18" rx="2" ry="2"/><rect class="c" x="34" y="34" rx="2" ry="2"/><rect class="c" x="34" y="50" rx="2" ry="2"/><rect class="c" x="34" y="66" rx="2" ry="2"/><rect class="c" x="34" y="82" rx="2" ry="2"/><rect class="c" x="34" y="98" rx="2" ry="2"/><rect class="c" x="50" y="2" rx="2" ry="2"/><rect class="c" x="50" y="18" rx="2" ry="2"/><rect class="c" x="50" y="34" rx="2" ry="2"/><rect class="c" x="50" y="50" rx="2" ry="2"/><rect class="c" x="50" y="66" rx="2" ry="2"/><rect class="c" x="50" y="82" rx="2" ry="2"/><rect class="c" x="50" y="98" rx="2" ry="2"/><rect class="c" x="66" y="2" rx="2" ry="2"/><rect class="c" x="66" y="18" rx="2" ry="2"/><rect class="c" x="66" y="34" rx="2" ry="2"/><rect class="c" x="66" y="50" rx="2" ry="2"/><rect class="c" x="66" y="66" rx="2" ry="2"/><rect class="c" x="66" y="82" rx="2" ry="2"/><rect class="c" x="66" y="98" rx="2" ry="2"/><rect class="c" x="82" y="2" rx="2" ry="2"/><rect class="c" x="82" y="18" rx="2" ry="2"/><rect class="c" x="82" y="34" rx="2" ry="2"/><rect class="c" x="82" y="50" rx="2" ry="2"/><rect class="c" x="82" y="66" rx="2" ry="2"/><rect class="c" x="82" y="82" rx="2" ry="2"/><rect class="c" x="82" y="98" rx="2" ry="2"/><rect class="c" x="98" y="2" rx="2" ry="2"/><rect class="c" x="98" y="18" rx="2" ry="2"/><rect class="c" x="98" y="34" rx="2" ry="2"/><rect class="c" x="98" y="50" rx="2" ry="2"/><rect class="c" x="98" y="66" rx="2" ry="2"/><rect class="c" x="98" y="82" rx="2" ry="2"/><rect class="c" x="98" y="98" rx="2" ry="2"/><rect class="c" x="114" y="2" rx="2" ry="2"/><rect class="c" x="114" y="18" rx="2" ry="2"/><rect class="c" x="114" y="34" rx="2" ry="2"/><rect class="c" x="114" y="50" rx="2" ry="2"/><rect class="c" x="114" y="66" rx="2" ry="2"/><rect class="c" x="114" y="82" rx="2" ry="2"/><rect class="c" x="114" y="98" rx="2" ry="2"/><rect class="c" x="130" y="2" rx="2" ry="2"/><rect class="c" x="130" y="18" rx="2" ry="2"/><rect class="c" x="130" y="34" rx="2" ry="2"/><rect class="c" x="130" y="50" rx="2" ry="2"/><rect class="c" x="130" y="66" rx="2" ry="2"/><rect class="c" x="130" y="82" rx="2" ry="2"/><rect class="c" x="130" y="98" rx="2" ry="2"/><rect class="c" x="146" y="2" rx="2" ry="2"/><rect class="c" x="146" y="18" rx="2" ry="2"/><rect class="c" x="146" y="34" rx="2" ry="2"/><rect class="c" x="146" y="50" rx="2" ry="2"/><rect class="c" x="146" y="66" rx="2" ry="2"/><rect class="c" x="146" y="82" rx="2" ry="2"/><rect class="c" x="146" y="98" rx="2" ry="2"/><rect class="c" x="162" y="2" rx="2" ry="2"/><rect class="c" x="162" y="18" rx="2" ry="2"/><rect class="c" x="162" y="34" rx="2" ry="2"/><rect class="c" x="162" y="50" rx="2" ry="2"/><rect class="c" x="162" y="66" rx="2" ry="2"/><rect class="c" x="162" y="82" rx="2" ry="2"/><rect class="c" x="162" y="98" rx="2" ry="2"/><rect class="c" x="178" y="2" rx="2" ry="2"/><rect class="c" x="178" y="18" rx="2" ry="2"/><rect class="c" x="178" y="34" rx="2" ry="2"/><rect class="c" x="178" y="50" rx="2" ry="2"/><rect class="c" x="178" y="66" rx="2" ry="2"/><rect class="c" x="178" y="82" rx="2" ry="2"/><rect class="c" x="178" y="98" rx="2" ry="2"/><rect class="c" x="194" y="2" rx="2" ry="2"/><rect class="c" x="194" y="18" rx="2" ry="2"/><rect class="c" x="194" y="34" rx="2" ry="2"/><rect class="c" x="194" y="50" rx="2" ry="2"/><rect class="c" x="194" y="66" rx="2" ry="2"/><rect class="c" x="194" y="82" rx="2" ry="2"/><rect class="c" x="194" y="98" rx="2" ry="2"/><rect class="c" x="210" y="2" rx="2" ry="2"/><rect class="c" x="210" y="18" rx="2" ry="2"/><rect class="c" x="210" y="34" rx="2" ry="2"/><rect class="c" x="210" y="50" rx="2" ry="2"/><rect class="c" x="210" y="66" rx="2" ry="2"/><rect class="c" x="210" y="82" rx="2" ry="2"/><rect class="c" x="210" y="98" rx="2" ry="2"/><rect class="c" x="226" y="2" rx="2" ry="2"/><rect class="c" x="226" y="18" rx="2" ry="2"/><rect class="c" x="226" y="34" rx="2" ry="2"/><rect class="c" x="226" y="50" rx="2" ry="2"/><rect class="c" x="226" y="66" rx="2" ry="2"/><rect class="c" x="226" y="82" rx="2" ry="2"/><rect class="c" x="226" y="98" rx="2" ry="2"/><rect class="c" x="242" y="2" rx="2" ry="2"/><rect class="c" x="242" y="18" rx="2" ry="2"/><rect class="c" x="242" y="34" rx="2" ry="2"/><rect class="c" x="242" y="50" rx="2" ry="2"/><rect class="c" x="242" y="66" rx="2" ry="2"/><rect class="c" x="242" y="82" rx="2" ry="2"/><rect class="c" x="242" y="98" rx="2" ry="2"/><rect class="c" x="258" y="2" rx="2" ry="2"/><rect class="c" x="258" y="18" rx="2" ry="2"/><rect class="c" x="258" y="34" rx="2" ry="2"/><rect class="c" x="258" y="50" rx="2" ry="2"/><rect class="c" x="258" y="66" rx="2" ry="2"/><rect class="c" x="258" y="82" rx="2" ry="2"/><rect class="c" x="258" y="98" rx="2" ry="2"/><rect class="c" x="274" y="2" rx="2" ry="2"/><rect class="c" x="274" y="18" rx="2" ry="2"/><rect class="c" x="274" y="34" rx="2" ry="2"/><rect class="c" x="274" y="50" rx="2" ry="2"/><rect class="c" x="274" y="66" rx="2" ry="2"/><rect class="c" x="274" y="82" rx="2" ry="2"/><rect class="c" x="274" y="98" rx="2" ry="2"/><rect class="c" x="290" y="2" rx="2" ry="2"/><rect class="c" x="290" y="18" rx="2" ry="2"/><rect class="c" x="290" y="34" rx="2" ry="2"/><rect class="c" x="290" y="50" rx="2" ry="2"/><rect class="c" x="290" y="66" rx="2" ry="2"/><rect class="c" x="290" y="82" rx="2" ry="2"/><rect class="c" x="290" y="98" rx="2" ry="2"/><rect class="c" x="306" y="2" rx="2" ry="2"/><rect class="c" x="306" y="18" rx="2" ry="2"/><rect class="c" x="306" y="34" rx="2" ry="2"/><rect class="c" x="306" y="50" rx="2" ry="2"/><rect class="c" x="306" y="66" rx="2" ry="2"/><rect class="c" x="306" y="82" rx="2" ry="2"/><rect class="c" x="306" y="98" rx="2" ry="2"/><rect class="c" x="322" y="2" rx="2" ry="2"/><rect class="c" x="322" y="18" rx="2" ry="2"/><rect class="c" x="322" y="34" rx="2" ry="2"/><rect class="c" x="322" y="50" rx="2" ry="2"/><rect class="c" x="322" y="66" rx="2" ry="2"/><rect class="c" x="322" y="82" rx="2" ry="2"/><rect class="c" x="322" y="98" rx="2" ry="2"/><rect class="c" x="338" y="2" rx="2" ry="2"/><rect class="c" x="338" y="18" rx="2" ry="2"/><rect class="c" x="338" y="34" rx="2" ry="2"/><rect class="c" x="338" y="50" rx="2" ry="2"/><rect class="c" x="338" y="66" rx="2" ry="2"/><rect class="c c0" x="338" y="82" rx="2" ry="2"/><rect class="c c1" x="338" y="98" rx="2" ry="2"/><rect class="c" x="354" y="2" rx="2" ry="2"/><rect class="c" x="354" y="18" rx="2" ry="2"/><rect class="c" x="354" y="34" rx="2" ry="2"/><rect class="c" x="354" y="50" rx="2" ry="2"/><rect class="c" x="354" y="66" rx="2" ry="2"/><rect class="c" x="354" y="82" rx="2" ry="2"/><rect class="c" x="354" y="98" rx="2" ry="2"/><rect class="c" x="370" y="2" rx="2" ry="2"/><rect class="c" x="370" y="18" rx="2" ry="2"/><rect class="c" x="370" y="34" rx="2" ry="2"/><rect class="c" x="370" y="50" rx="2" ry="2"/><rect class="c" x="370" y="66" rx="2" ry="2"/><rect class="c" x="370" y="82" rx="2" ry="2"/><rect class="c" x="370" y="98" rx="2" ry="2"/><rect class="c" x="386" y="2" rx="2" ry="2"/><rect class="c" x="386" y="18" rx="2" ry="2"/><rect class="c" x="386" y="34" rx="2" ry="2"/><rect class="c" x="386" y="50" rx="2" ry="2"/><rect class="c" x="386" y="66" rx="2" ry="2"/><rect class="c" x="386" y="82" rx="2" ry="2"/><rect class="c" x="386" y="98" rx="2" ry="2"/><rect class="c" x="402" y="2" rx="2" ry="2"/><rect class="c" x="402" y="18" rx="2" ry="2"/><rect class="c" x="402" y="34" rx="2" ry="2"/><rect class="c" x="402" y="50" rx="2" ry="2"/><rect class="c" x="402" y="66" rx="2" ry="2"/><rect class="c" x="402" y="82" rx="2" ry="2"/><rect class="c" x="402" y="98" rx="2" ry="2"/><rect class="c" x="418" y="2" rx="2" ry="2"/><rect class="c" x="418" y="18" rx="2" ry="2"/><rect class="c" x="418" y="34" rx="2" ry="2"/><rect class="c" x="418" y="50" rx="2" ry="2"/><rect class="c" x="418" y="66" rx="2" ry="2"/><rect class="c" x="418" y="82" rx="2" ry="2"/><rect class="c" x="418" y="98" rx="2" ry="2"/><rect class="c" x="434" y="2" rx="2" ry="2"/><rect class="c" x="434" y="18" rx="2" ry="2"/><rect class="c" x="434" y="34" rx="2" ry="2"/><rect class="c" x="434" y="50" rx="2" ry="2"/><rect class="c" x="434" y="66" rx="2" ry="2"/><rect class="c" x="434" y="82" rx="2" ry="2"/><rect class="c" x="434" y="98" rx="2" ry="2"/><rect class="c" x="450" y="2" rx="2" ry="2"/><rect class="c" x="450" y="18" rx="2" ry="2"/><rect class="c" x="450" y="34" rx="2" ry="2"/><rect class="c" x="450" y="50" rx="2" ry="2"/><rect class="c" x="450" y="66" rx="2" ry="2"/><rect class="c" x="450" y="82" rx="2" ry="2"/><rect class="c" x="450" y="98" rx="2" ry="2"/><rect class="c" x="466" y="2" rx="2" ry="2"/><rect class="c" x="466" y="18" rx="2" ry="2"/><rect class="c" x="466" y="34" rx="2" ry="2"/><rect class="c" x="466" y="50" rx="2" ry="2"/><rect class="c" x="466" y="66" rx="2" ry="2"/><rect class="c" x="466" y="82" rx="2" ry="2"/><rect class="c" x="466" y="98" rx="2" ry="2"/><rect class="c" x="482" y="2" rx="2" ry="2"/><rect class="c" x="482" y="18" rx="2" ry="2"/><rect class="c" x="482" y="34" rx="2" ry="2"/><rect class="c" x="482" y="50" rx="2" ry="2"/><rect class="c" x="482" y="66" rx="2" ry="2"/><rect class="c" x="482" y="82" rx="2" ry="2"/><rect class="c" x="482" y="98" rx="2" ry="2"/><rect class="c c2" x="498" y="2" rx="2" ry="2"/><rect class="c" x="498" y="18" rx="2" ry="2"/><rect class="c" x="498" y="34" rx="2" ry="2"/><rect class="c c3" x="498" y="50" rx="2" ry="2"/><rect class="c c4" x="498" y="66" rx="2" ry="2"/><rect class="c" x="498" y="82" rx="2" ry="2"/><rect class="c" x="498" y="98" rx="2" ry="2"/><rect class="c" x="514" y="2" rx="2" ry="2"/><rect class="c c5" x="514" y="18" rx="2" ry="2"/><rect class="c c6" x="514" y="34" rx="2" ry="2"/><rect class="c c7" x="514" y="50" rx="2" ry="2"/><rect class="c c8" x="514" y="66" rx="2" ry="2"/><rect class="c c9" x="514" y="82" rx="2" ry="2"/><rect class="c" x="514" y="98" rx="2" ry="2"/><rect class="c ca" x="530" y="2" rx="2" ry="2"/><rect class="c" x="530" y="18" rx="2" ry="2"/><rect class="c" x="530" y="34" rx="2" ry="2"/><rect class="c cb" x="530" y="50" rx="2" ry="2"/><rect class="c cc" x="530" y="66" rx="2" ry="2"/><rect class="c cd" x="530" y="82" rx="2" ry="2"/><rect class="c ce" x="530" y="98" rx="2" ry="2"/><rect class="c cf" x="546" y="2" rx="2" ry="2"/><rect class="c cg" x="546" y="18" rx="2" ry="2"/><rect class="c ch" x="546" y="34" rx="2" ry="2"/><rect class="c ci" x="546" y="50" rx="2" ry="2"/><rect class="c cj" x="546" y="66" rx="2" ry="2"/><rect class="c ck" x="546" y="82" rx="2" ry="2"/><rect class="c" x="546" y="98" rx="2" ry="2"/><rect class="c" x="562" y="2" rx="2" ry="2"/><rect class="c" x="562" y="18" rx="2" ry="2"/><rect class="c" x="562" y="34" rx="2" ry="2"/><rect class="c" x="562" y="50" rx="2" ry="2"/><rect class="c" x="562" y="66" rx="2" ry="2"/><rect class="c" x="562" y="82" rx="2" ry="2"/><rect class="c" x="562" y="98" rx="2" ry="2"/><rect class="c" x="578" y="2" rx="2" ry="2"/><rect class="c" x="578" y="18" rx="2" ry="2"/><rect class="c" x="578" y="34" rx="2" ry="2"/><rect class="c" x="578" y="50" rx="2" ry="2"/><rect class="c" x="578" y="66" rx="2" ry="2"/><rect class="c" x="578" y="82" rx="2" ry="2"/><rect class="c" x="578" y="98" rx="2" ry="2"/><rect class="c" x="594" y="2" rx="2" ry="2"/><rect class="c" x="594" y="18" rx="2" ry="2"/><rect class="c" x="594" y="34" rx="2" ry="2"/><rect class="c" x="594" y="50" rx="2" ry="2"/><rect class="c" x="594" y="66" rx="2" ry="2"/><rect class="c" x="594" y="82" rx="2" ry="2"/><rect class="c" x="594" y="98" rx="2" ry="2"/><rect class="c" x="610" y="2" rx="2" ry="2"/><rect class="c" x="610" y="18" rx="2" ry="2"/><rect class="c" x="610" y="34" rx="2" ry="2"/><rect class="c" x="610" y="50" rx="2" ry="2"/><rect class="c" x="610" y="66" rx="2" ry="2"/><rect class="c" x="610" y="82" rx="2" ry="2"/><rect class="c" x="610" y="98" rx="2" ry="2"/><rect class="c" x="626" y="2" rx="2" ry="2"/><rect class="c" x="626" y="18" rx="2" ry="2"/><rect class="c" x="626" y="34" rx="2" ry="2"/><rect class="c" x="626" y="50" rx="2" ry="2"/><rect class="c" x="626" y="66" rx="2" ry="2"/><rect class="c" x="626" y="82" rx="2" ry="2"/><rect class="c" x="626" y="98" rx="2" ry="2"/><rect class="c" x="642" y="2" rx="2" ry="2"/><rect class="c" x="642" y="18" rx="2" ry="2"/><rect class="c" x="642" y="34" rx="2" ry="2"/><rect class="c" x="642" y="50" rx="2" ry="2"/><rect class="c" x="642" y="66" rx="2" ry="2"/><rect class="c" x="642" y="82" rx="2" ry="2"/><rect class="c" x="642" y="98" rx="2" ry="2"/><rect class="c cl" x="658" y="2" rx="2" ry="2"/><rect class="c cm" x="658" y="18" rx="2" ry="2"/><rect class="c cn" x="658" y="34" rx="2" ry="2"/><rect class="c" x="658" y="50" rx="2" ry="2"/><rect class="c" x="658" y="66" rx="2" ry="2"/><rect class="c co" x="658" y="82" rx="2" ry="2"/><rect class="c cp" x="658" y="98" rx="2" ry="2"/><rect class="c cq" x="674" y="2" rx="2" ry="2"/><rect class="c" x="674" y="18" rx="2" ry="2"/><rect class="c" x="674" y="34" rx="2" ry="2"/><rect class="c" x="674" y="50" rx="2" ry="2"/><rect class="c cr" x="674" y="66" rx="2" ry="2"/><rect class="c" x="674" y="82" rx="2" ry="2"/><rect class="c" x="674" y="98" rx="2" ry="2"/><rect class="c" x="690" y="2" rx="2" ry="2"/><rect class="c cs" x="690" y="18" rx="2" ry="2"/><rect class="c ct" x="690" y="34" rx="2" ry="2"/><rect class="c cu" x="690" y="50" rx="2" ry="2"/><rect class="c" x="690" y="66" rx="2" ry="2"/><rect class="c cv" x="690" y="82" rx="2" ry="2"/><rect class="c" x="690" y="98" rx="2" ry="2"/><rect class="c cw" x="706" y="2" rx="2" ry="2"/><rect class="c cx" x="706" y="18" rx="2" ry="2"/><rect class="c cy" x="706" y="34" rx="2" ry="2"/><rect class="c cz" x="706" y="50" rx="2" ry="2"/><rect class="c" x="706" y="66" rx="2" ry="2"/><rect class="c c10" x="706" y="82" rx="2" ry="2"/><rect class="c c11" x="706" y="98" rx="2" ry="2"/><rect class="c c12" x="722" y="2" rx="2" ry="2"/><rect class="c c13" x="722" y="18" rx="2" ry="2"/><rect class="c c14" x="722" y="34" rx="2" ry="2"/><rect class="c" x="722" y="50" rx="2" ry="2"/><rect class="c c15" x="722" y="66" rx="2" ry="2"/><rect class="c c16" x="722" y="82" rx="2" ry="2"/><rect class="c c17" x="722" y="98" rx="2" ry="2"/><rect class="c c18" x="738" y="2" rx="2" ry="2"/><rect class="c c19" x="738" y="18" rx="2" ry="2"/><rect class="c c1a" x="738" y="34" rx="2" ry="2"/><rect class="c c1b" x="738" y="50" rx="2" ry="2"/><rect class="c c1c" x="738" y="66" rx="2" ry="2"/><rect class="c c1d" x="738" y="82" rx="2" ry="2"/><rect class="c c1e" x="738" y="98" rx="2" ry="2"/><rect class="c c1f" x="754" y="2" rx="2" ry="2"/><rect class="c c1g" x="754" y="18" rx="2" ry="2"/><rect class="c c1h" x="754" y="34" rx="2" ry="2"/><rect class="c" x="754" y="50" rx="2" ry="2"/><rect class="c" x="754" y="66" rx="2" ry="2"/><rect class="c c1i" x="754" y="82" rx="2" ry="2"/><rect class="c" x="754" y="98" rx="2" ry="2"/><rect class="c c1j" x="770" y="2" rx="2" ry="2"/><rect class="c c1k" x="770" y="18" rx="2" ry="2"/><rect class="c c1l" x="770" y="34" rx="2" ry="2"/><rect class="c" x="770" y="50" rx="2" ry="2"/><rect class="c" x="770" y="66" rx="2" ry="2"/><rect class="c" x="770" y="82" rx="2" ry="2"/><rect class="c" x="770" y="98" rx="2" ry="2"/><rect class="c c1m" x="786" y="2" rx="2" ry="2"/><rect class="c" x="786" y="18" rx="2" ry="2"/><rect class="c" x="786" y="34" rx="2" ry="2"/><rect class="c" x="786" y="50" rx="2" ry="2"/><rect class="c" x="786" y="66" rx="2" ry="2"/><rect class="c" x="786" y="82" rx="2" ry="2"/><rect class="c" x="786" y="98" rx="2" ry="2"/><rect class="c" x="802" y="2" rx="2" ry="2"/><rect class="c" x="802" y="18" rx="2" ry="2"/><rect class="c c1n" x="802" y="34" rx="2" ry="2"/><rect class="c c1o" x="802" y="50" rx="2" ry="2"/><rect class="c c1p" x="802" y="66" rx="2" ry="2"/><rect class="c c1q" x="802" y="82" rx="2" ry="2"/><rect class="c c1r" x="802" y="98" rx="2" ry="2"/><rect class="c c1s" x="818" y="2" rx="2" ry="2"/><rect class="c c1t" x="818" y="18" rx="2" ry="2"/><rect class="c c1u" x="818" y="34" rx="2" ry="2"/><rect class="c c1v" x="818" y="50" rx="2" ry="2"/><rect class="c" x="818" y="66" rx="2" ry="2"/><rect class="c" x="818" y="82" rx="2" ry="2"/><rect class="c" x="818" y="98" rx="2" ry="2"/><rect class="c c1w" x="834" y="2" rx="2" ry="2"/><rect class="c" x="834" y="18" rx="2" ry="2"/><rect class="c" x="834" y="34" rx="2" ry="2"/><rect class="c" x="834" y="50" rx="2" ry="2"/><rect class="c" x="834" y="66" rx="2" ry="2"/><rect class="u u0" height="12" width="688.8" x="0.0" y="144"/><rect class="u u1" height="12" width="98.9" x="688.2" y="144"/><rect class="u u2" height="12" width="37.5" x="786.6" y="144"/><rect class="u u3" height="12" width="25.2" x="823.4" y="144"/><rect class="s s0" x="0.8" y="0.8" width="14.4" height="14.4" rx="4.5" ry="4.5"/><rect class="s s1" x="1.8" y="1.8" width="12.3" height="12.3" rx="4.1" ry="4.1"/><rect class="s s2" x="2.6" y="2.6" width="10.8" height="10.8" rx="3.6" ry="3.6"/><rect class="s s3" x="3.0" y="3.0" width="9.9" height="9.9" rx="3.3" ry="3.3"/>
  </g>
</svg></g>

  <rect x="20" y="688" width="85" height="14" rx="3" fill="#3c3836"/>
  <rect x="109" y="688" width="85" height="14" rx="3" fill="#fb4934"/>
  <rect x="198" y="688" width="85" height="14" rx="3" fill="#b8bb26"/>
  <rect x="287" y="688" width="85" height="14" rx="3" fill="#fabd2f"/>
  <rect x="376" y="688" width="85" height="14" rx="3" fill="#83a598"/>
  <rect x="465" y="688" width="85" height="14" rx="3" fill="#d3869b"/>
  <rect x="554" y="688" width="85" height="14" rx="3" fill="#8ec07c"/>
  <rect x="643" y="688" width="85" height="14" rx="3" fill="#ebdbb2"/>

  <text x="20" y="726" font-size="12">
    <tspan fill="#b8bb26">arg9244@github</tspan>
    <tspan fill="#928374" xml:space="preserve"> ~ </tspan>
    <tspan fill="#83a598">❯ </tspan>
    <tspan class="cursor">▋</tspan>
  </text>
</svg>