<svg xmlns="http://www.w3.org/2000/svg" viewBox="0 0 740 736" width="740" height="736" font-family="'JetBrains Mono','Fira Code','Cascadia Code','Symbols Nerd Font',monospace">
  <defs>
    <style>
      .bg     { fill: #282828; }
      .border { fill: none; stroke: #3c3836; stroke-width: 1; }
      .surface{ fill: #1d2021; stroke: #3c3836; stroke-width: 1; }
      .title  { fill: #928374; font-size: 11px; }
      .dot-r  { fill: #fb4934;   }
      .dot-y  { fill: #fabd2f;}
      .dot-g  { fill: #b8bb26; }
      .text   { fill: #ebdbb2;   font-size: 12px; }
      .muted  { fill: #928374;  font-size: 12px; }
      .accent { fill: #83a598; font-size: 12px; font-weight: 600; }
      .green  { fill: #b8bb26;  font-size: 12px; }
      .yellow { fill: #fabd2f; font-size: 12px; }
      .red    { fill: #fb4934;    font-size: 12px; }
      .head   { fill: #83a598; font-size: 12px; font-weight: 700; }
      .small  { fill: #928374;  font-size: 10px; }
      .logo   { font-size: 11px; line-height: 1; }
      .glyph  { font-size: 13px; }
      .cursor { fill: #ebdbb2; animation: blink 1.05s steps(2,start) infinite; }
      @keyframes blink { to { visibility: hidden; } }
    </style>
  </defs>

  <rect class="bg" x="0" y="0" width="740" height="736" rx="10"/>
  <rect class="border" x="0.5" y="0.5" width="739" height="735" rx="10"/>

  <line x1="0" y1="30" x2="740" y2="30" stroke="#3c3836" stroke-width="1"/>
  <circle class="dot-r" cx="18" cy="15" r="5"/>
  <circle class="dot-y" cx="34" cy="15" r="5"/>
  <circle class="dot-g" cx="50" cy="15" r="5"/>
  <text class="title" x="370.0" y="19" text-anchor="middle">arg9244@github — ~/profile</text>



  <g transform="translate(20 50)">
    <text class="logo" x="0" y="13" fill="#83a598" xml:space="preserve">       /\       </text>
    <text class="logo" x="0" y="26" fill="#83a598" xml:space="preserve">      /  \      </text>
    <text class="logo" x="0" y="39" fill="#83a598" xml:space="preserve">     /\   \     </text>
    <text class="logo" x="0" y="52" fill="#83a598" xml:space="preserve">    /      \    </text>
    <text class="logo" x="0" y="65" fill="#83a598" xml:space="preserve">   /   ,,   \   </text>
    <text class="logo" x="0" y="78" fill="#83a598" xml:space="preserve">  /   |  |   \  </text>
    <text class="logo" x="0" y="91" fill="#928374" xml:space="preserve"> / _-&#39;    `-_ \ </text>
    <text class="logo" x="0" y="104" fill="#928374" xml:space="preserve">/_-&#39;        `-_\</text>
  </g>

  <g transform="translate(150 50)">
    <text class="head" x="0" y="14">arg9244</text>
    <text class="muted" x="0" y="18">
      <tspan x="0" dy="14" xml:space="preserve">───────</tspan>
    </text>
    <text class="text" x="0" y="50">Linux Enthusiast DevOps Engineer</text>
    <text class="accent" x="0" y="68">↗ <tspan class="muted" dx="2">github.com/arg9244</tspan></text>
    <text x="0" y="84">
        <tspan class="accent">Email</tspan>
    </text>
  </g>


  <rect class="surface" x="20" y="176" width="700" height="168" rx="6"/>
  <text class="small" x="32" y="190">┌─ system ─</text>
  <text class="glyph" x="32"  y="208" fill="#83a598">◆</text>
  <text class="accent" x="56"  y="208">OS</text>
  <text class="text"  x="170" y="208">CachyOS</text>
  <text class="glyph" x="32"  y="226" fill="#d3869b">▣</text>
  <text class="accent" x="56"  y="226">WM</text>
  <text class="text"  x="170" y="226">Niri + Noctalia</text>
  <text class="glyph" x="32"  y="244" fill="#b8bb26">❯</text>
  <text class="accent" x="56"  y="244">Shell</text>
  <text class="text"  x="170" y="244">fish</text>
  <text class="glyph" x="32"  y="262" fill="#83a598">▶</text>
  <text class="accent" x="56"  y="262">Terminal</text>
  <text class="text"  x="170" y="262">Kitty</text>
  <text class="glyph" x="32"  y="280" fill="#fabd2f">✎</text>
  <text class="accent" x="56"  y="280">Editor</text>
  <text class="text"  x="170" y="280">Zed</text>
  <text class="glyph" x="32"  y="298" fill="#fb4934">■</text>
  <text class="accent" x="56"  y="298">CPU</text>
  <text class="text"  x="170" y="298">AMD Ryzen 5 3600</text>
  <text class="glyph" x="32"  y="316" fill="#d3869b">▤</text>
  <text class="accent" x="56"  y="316">GPU</text>
  <text class="text"  x="170" y="316">AMD Radeon RX 6800</text>
  <text class="glyph" x="32"  y="334" fill="#83a598">•</text>
  <text class="accent" x="56"  y="334">RAM</text>
  <text class="text"  x="170" y="334">32GB DDR4</text>

  <rect class="surface" x="20" y="356" width="700" height="132" rx="6"/>
  <text class="small" x="32" y="370">┌─ ~/projects ─</text>
  <circle cx="38" cy="384" r="5" fill="#3572A5"/>
  <text class="accent" x="50" y="388">arg9244</text>
  <text class="yellow" x="520" y="388">★ 0</text>
  <text class="muted"  x="570" y="388">Python</text>
  <circle cx="38" cy="406" r="5" fill="#3178c6"/>
  <text class="accent" x="50" y="410">browser-benchmark</text>
  <text class="yellow" x="520" y="410">★ 0</text>
  <text class="muted"  x="570" y="410">TypeScript</text>
  <circle cx="38" cy="428" r="5" fill="#dea584"/>
  <text class="accent" x="50" y="432">ggum</text>
  <text class="yellow" x="520" y="432">★ 0</text>
  <text class="muted"  x="570" y="432">Rust</text>
  <circle cx="38" cy="450" r="5" fill="#3572A5"/>
  <text class="accent" x="50" y="454">V2R-Subs</text>
  <text class="yellow" x="520" y="454">★ 0</text>
  <text class="muted"  x="570" y="454">Python</text>
  <circle cx="38" cy="472" r="5" fill="#e34c26"/>
  <text class="accent" x="50" y="476">weather_graph</text>
  <text class="yellow" x="520" y="476">★ 0</text>
  <text class="muted"  x="570" y="476">HTML</text>

  <text class="text" x="20" y="514">
    <tspan class="muted" xml:space="preserve">  repos </tspan><tspan class="accent">9</tspan>
    <tspan class="muted" xml:space="preserve">    stars </tspan><tspan class="yellow">0</tspan>
    <tspan class="muted" xml:space="preserve">    followers </tspan><tspan class="green">0</tspan>
    <tspan class="muted" xml:space="preserve">    following </tspan><tspan class="purple" fill="#d3869b">0</tspan>
  </text>

  <g transform="translate(20 520)"><svg width="700.0" height="152.72727272727272" viewBox="-16 -32 880 192" preserveAspectRatio="xMidYMid meet">
  <defs>
    <style type="text/css">
.c{shape-rendering:geometricPrecision;fill:#282828;stroke-width:1px;stroke:#3c38360a;animation:none 21300ms linear infinite;width:12px;height:12px}
@keyframes c0{13.61%{fill:#3c3836}
13.63%,100%{fill:#282828}}
.c.c0{fill:#3c3836;animation-name:c0}
@keyframes c1{14.07%{fill:#3c3836}
14.09%,100%{fill:#282828}}
.c.c1{fill:#3c3836;animation-name:c1}
@keyframes c2{21.59%{fill:#3c3836}
21.61%,100%{fill:#282828}}
.c.c2{fill:#3c3836;animation-name:c2}
@keyframes c3{20.18%{fill:#3c3836}
20.2%,100%{fill:#282828}}
.c.c3{fill:#3c3836;animation-name:c3}
@keyframes c4{19.71%{fill:#3c3836}
19.73%,100%{fill:#282828}}
.c.c4{fill:#3c3836;animation-name:c4}
@keyframes c5{77.92%{fill:#665c54}
77.94%,100%{fill:#282828}}
.c.c5{fill:#665c54;animation-name:c5}
@keyframes c6{77.45%{fill:#665c54}
77.47%,100%{fill:#282828}}
.c.c6{fill:#665c54;animation-name:c6}
@keyframes c7{80.74%{fill:#b8bb26}
80.76%,100%{fill:#282828}}
.c.c7{fill:#b8bb26;animation-name:c7}
@keyframes c8{81.21%{fill:#b8bb26}
81.23%,100%{fill:#282828}}
.c.c8{fill:#b8bb26;animation-name:c8}
@keyframes c9{74.17%{fill:#504945}
74.19%,100%{fill:#282828}}
.c.c9{fill:#504945;animation-name:c9}
@keyframes ca{78.86%{fill:#665c54}
78.88%,100%{fill:#282828}}
.c.ca{fill:#665c54;animation-name:ca}
@keyframes cb{26.75%{fill:#3c3836}
26.77%,100%{fill:#282828}}
.c.cb{fill:#3c3836;animation-name:cb}
@keyframes cc{27.22%{fill:#3c3836}
27.24%,100%{fill:#282828}}
.c.cc{fill:#3c3836;animation-name:cc}
@keyframes cd{73.7%{fill:#504945}
73.72%,100%{fill:#282828}}
.c.cd{fill:#504945;animation-name:cd}
@keyframes ce{75.11%{fill:#504945}
75.13%,100%{fill:#282828}}
.c.ce{fill:#504945;animation-name:ce}
@keyframes cf{70.88%{fill:#504945}
70.9%,100%{fill:#282828}}
.c.cf{fill:#504945;animation-name:cf}
@keyframes cg{71.35%{fill:#504945}
71.37%,100%{fill:#282828}}
.c.cg{fill:#504945;animation-name:cg}
@keyframes ch{25.81%{fill:#3c3836}
25.83%,100%{fill:#282828}}
.c.ch{fill:#3c3836;animation-name:ch}
@keyframes ci{26.28%{fill:#3c3836}
26.3%,100%{fill:#282828}}
.c.ci{fill:#3c3836;animation-name:ci}
@keyframes cj{27.69%{fill:#3c3836}
27.71%,100%{fill:#282828}}
.c.cj{fill:#3c3836;animation-name:cj}
@keyframes ck{28.16%{fill:#3c3836}
28.18%,100%{fill:#282828}}
.c.ck{fill:#3c3836;animation-name:ck}
@keyframes cl{57.27%{fill:#3c3836}
57.29%,100%{fill:#282828}}
.c.cl{fill:#3c3836;animation-name:cl}
@keyframes cm{56.8%{fill:#3c3836}
56.82%,100%{fill:#282828}}
.c.cm{fill:#3c3836;animation-name:cm}
@keyframes cn{56.33%{fill:#3c3836}
56.35%,100%{fill:#282828}}
.c.cn{fill:#3c3836;animation-name:cn}
@keyframes co{31.45%{fill:#3c3836}
31.47%,100%{fill:#282828}}
.c.co{fill:#3c3836;animation-name:co}
@keyframes cp{31.91%{fill:#3c3836}
31.93%,100%{fill:#282828}}
.c.cp{fill:#3c3836;animation-name:cp}
@keyframes cq{57.74%{fill:#3c3836}
57.76%,100%{fill:#282828}}
.c.cq{fill:#3c3836;animation-name:cq}
@keyframes cr{52.1%{fill:#3c3836}
52.12%,100%{fill:#282828}}
.c.cr{fill:#3c3836;animation-name:cr}
@keyframes cs{49.29%{fill:#3c3836}
49.31%,100%{fill:#282828}}
.c.cs{fill:#3c3836;animation-name:cs}
@keyframes ct{49.76%{fill:#3c3836}
49.78%,100%{fill:#282828}}
.c.ct{fill:#3c3836;animation-name:ct}
@keyframes cu{51.16%{fill:#3c3836}
51.18%,100%{fill:#282828}}
.c.cu{fill:#3c3836;animation-name:cu}
@keyframes cv{53.04%{fill:#3c3836}
53.06%,100%{fill:#282828}}
.c.cv{fill:#3c3836;animation-name:cv}
@keyframes cw{48.35%{fill:#3c3836}
48.37%,100%{fill:#282828}}
.c.cw{fill:#3c3836;animation-name:cw}
@keyframes cx{48.82%{fill:#3c3836}
48.84%,100%{fill:#282828}}
.c.cx{fill:#3c3836;animation-name:cx}
@keyframes cy{50.22%{fill:#3c3836}
50.24%,100%{fill:#282828}}
.c.cy{fill:#3c3836;animation-name:cy}
@keyframes cz{50.69%{fill:#3c3836}
50.71%,100%{fill:#282828}}
.c.cz{fill:#3c3836;animation-name:cz}
@keyframes c10{53.51%{fill:#3c3836}
53.53%,100%{fill:#282828}}
.c.c10{fill:#3c3836;animation-name:c10}
@keyframes c11{33.32%{fill:#3c3836}
33.34%,100%{fill:#282828}}
.c.c11{fill:#3c3836;animation-name:c11}
@keyframes c12{47.88%{fill:#3c3836}
47.9%,100%{fill:#282828}}
.c.c12{fill:#3c3836;animation-name:c12}
@keyframes c13{44.59%{fill:#3c3836}
44.61%,100%{fill:#282828}}
.c.c13{fill:#3c3836;animation-name:c13}
@keyframes c14{44.12%{fill:#3c3836}
44.14%,100%{fill:#282828}}
.c.c14{fill:#3c3836;animation-name:c14}
@keyframes c15{43.18%{fill:#3c3836}
43.2%,100%{fill:#282828}}
.c.c15{fill:#3c3836;animation-name:c15}
@keyframes c16{42.71%{fill:#3c3836}
42.73%,100%{fill:#282828}}
.c.c16{fill:#3c3836;animation-name:c16}
@keyframes c17{33.79%{fill:#3c3836}
33.81%,100%{fill:#282828}}
.c.c17{fill:#3c3836;animation-name:c17}
@keyframes c18{47.41%{fill:#3c3836}
47.43%,100%{fill:#282828}}
.c.c18{fill:#3c3836;animation-name:c18}
@keyframes c19{45.06%{fill:#3c3836}
45.08%,100%{fill:#282828}}
.c.c19{fill:#3c3836;animation-name:c19}
@keyframes c1a{37.08%{fill:#3c3836}
37.1%,100%{fill:#282828}}
.c.c1a{fill:#3c3836;animation-name:c1a}
@keyframes c1b{36.61%{fill:#3c3836}
36.63%,100%{fill:#282828}}
.c.c1b{fill:#3c3836;animation-name:c1b}
@keyframes c1c{36.14%{fill:#3c3836}
36.16%,100%{fill:#282828}}
.c.c1c{fill:#3c3836;animation-name:c1c}
@keyframes c1d{34.73%{fill:#3c3836}
34.75%,100%{fill:#282828}}
.c.c1d{fill:#3c3836;animation-name:c1d}
@keyframes c1e{34.26%{fill:#3c3836}
34.28%,100%{fill:#282828}}
.c.c1e{fill:#3c3836;animation-name:c1e}
@keyframes c1f{62.9%{fill:#504945}
62.92%,100%{fill:#282828}}
.c.c1f{fill:#504945;animation-name:c1f}
@keyframes c1g{45.53%{fill:#3c3836}
45.55%,100%{fill:#282828}}
.c.c1g{fill:#3c3836;animation-name:c1g}
@keyframes c1h{37.55%{fill:#3c3836}
37.57%,100%{fill:#282828}}
.c.c1h{fill:#3c3836;animation-name:c1h}
@keyframes c1i{35.2%{fill:#3c3836}
35.22%,100%{fill:#282828}}
.c.c1i{fill:#3c3836;animation-name:c1i}
@keyframes c1j{62.43%{fill:#504945}
62.45%,100%{fill:#282828}}
.c.c1j{fill:#504945;animation-name:c1j}
@keyframes c1k{63.84%{fill:#504945}
63.86%,100%{fill:#282828}}
.c.c1k{fill:#504945;animation-name:c1k}
@keyframes c1l{38.02%{fill:#3c3836}
38.04%,100%{fill:#282828}}
.c.c1l{fill:#3c3836;animation-name:c1l}
@keyframes c1m{61.96%{fill:#3c3836}
61.98%,100%{fill:#282828}}
.c.c1m{fill:#3c3836;animation-name:c1m}
@keyframes c1n{38.96%{fill:#3c3836}
38.98%,100%{fill:#282828}}
.c.c1n{fill:#3c3836;animation-name:c1n}
@keyframes c1o{39.43%{fill:#3c3836}
39.45%,100%{fill:#282828}}
.c.c1o{fill:#3c3836;animation-name:c1o}
@keyframes c1p{39.9%{fill:#3c3836}
39.92%,100%{fill:#282828}}
.c.c1p{fill:#3c3836;animation-name:c1p}
@keyframes c1q{40.37%{fill:#3c3836}
40.39%,100%{fill:#282828}}
.c.c1q{fill:#3c3836;animation-name:c1q}
.u{transform-origin:0 0;transform:scale(0,1);animation:none linear 21300ms infinite}
@keyframes u0{13.61%{transform:scale(0.000,1)}
13.63%,14.07%{transform:scale(0.020,1)}
14.09%,19.71%{transform:scale(0.040,1)}
19.73%,20.18%{transform:scale(0.060,1)}
20.2%,21.59%{transform:scale(0.080,1)}
21.61%,25.81%{transform:scale(0.100,1)}
25.83%,26.28%{transform:scale(0.120,1)}
26.3%,26.75%{transform:scale(0.140,1)}
26.77%,27.22%{transform:scale(0.160,1)}
27.24%,27.69%{transform:scale(0.180,1)}
27.71%,28.16%{transform:scale(0.200,1)}
28.18%,31.45%{transform:scale(0.220,1)}
31.47%,31.91%{transform:scale(0.240,1)}
31.93%,33.32%{transform:scale(0.260,1)}
33.34%,33.79%{transform:scale(0.280,1)}
33.81%,34.26%{transform:scale(0.300,1)}
34.28%,34.73%{transform:scale(0.320,1)}
34.75%,35.2%{transform:scale(0.340,1)}
35.22%,36.14%{transform:scale(0.360,1)}
36.16%,36.61%{transform:scale(0.380,1)}
36.63%,37.08%{transform:scale(0.400,1)}
37.1%,37.55%{transform:scale(0.420,1)}
37.57%,38.02%{transform:scale(0.440,1)}
38.04%,38.96%{transform:scale(0.460,1)}
38.98%,39.43%{transform:scale(0.480,1)}
39.45%,39.9%{transform:scale(0.500,1)}
39.92%,40.37%{transform:scale(0.520,1)}
40.39%,42.71%{transform:scale(0.540,1)}
42.73%,43.18%{transform:scale(0.560,1)}
43.2%,44.12%{transform:scale(0.580,1)}
44.14%,44.59%{transform:scale(0.600,1)}
44.61%,45.06%{transform:scale(0.620,1)}
45.08%,45.53%{transform:scale(0.640,1)}
45.55%,47.41%{transform:scale(0.660,1)}
47.43%,47.88%{transform:scale(0.680,1)}
47.9%,48.35%{transform:scale(0.700,1)}
48.37%,48.82%{transform:scale(0.720,1)}
48.84%,49.29%{transform:scale(0.740,1)}
49.31%,49.76%{transform:scale(0.760,1)}
49.78%,50.22%{transform:scale(0.780,1)}
50.24%,50.69%{transform:scale(0.800,1)}
50.71%,51.16%{transform:scale(0.820,1)}
51.18%,52.1%{transform:scale(0.840,1)}
52.12%,53.04%{transform:scale(0.860,1)}
53.06%,53.51%{transform:scale(0.880,1)}
53.53%,56.33%{transform:scale(0.900,1)}
56.35%,56.8%{transform:scale(0.920,1)}
56.82%,57.27%{transform:scale(0.940,1)}
57.29%,57.74%{transform:scale(0.960,1)}
57.76%,61.96%{transform:scale(0.980,1)}
61.98%,100%{transform:scale(1.000,1)}}
.u.u0{fill:#3c3836;animation-name:u0;transform-origin:0.0px 0}
@keyframes u1{62.43%{transform:scale(0.000,1)}
62.45%,62.9%{transform:scale(0.125,1)}
62.92%,63.84%{transform:scale(0.250,1)}
63.86%,70.88%{transform:scale(0.375,1)}
70.9%,71.35%{transform:scale(0.500,1)}
71.37%,73.7%{transform:scale(0.625,1)}
73.72%,74.17%{transform:scale(0.750,1)}
74.19%,75.11%{transform:scale(0.875,1)}
75.13%,100%{transform:scale(1.000,1)}}
.u.u1{fill:#504945;animation-name:u1;transform-origin:673.0px 0}
@keyframes u2{77.45%{transform:scale(0.000,1)}
77.47%,77.92%{transform:scale(0.333,1)}
77.94%,78.86%{transform:scale(0.667,1)}
78.88%,100%{transform:scale(1.000,1)}}
.u.u2{fill:#665c54;animation-name:u2;transform-origin:780.7px 0}
@keyframes u3{80.74%{transform:scale(0.000,1)}
80.76%,81.21%{transform:scale(0.500,1)}
81.23%,100%{transform:scale(1.000,1)}}
.u.u3{fill:#b8bb26;animation-name:u3;transform-origin:821.1px 0}
.s{shape-rendering:geometricPrecision;fill:#b8bb26;animation:none linear 21300ms infinite}
@keyframes s0{0%,99.53%{transform:translate(0px,-16px)}
0.47%{transform:translate(0px,0px)}
11.27%{transform:translate(368px,0px)}
14.08%{transform:translate(368px,96px)}
18.78%{transform:translate(528px,96px)}
21.6%{transform:translate(528px,0px)}
22.07%,79.34%{transform:translate(544px,0px)}
22.54%{transform:translate(544px,-16px)}
23.94%{transform:translate(592px,-16px)}
25.35%{transform:translate(592px,32px)}
25.82%{transform:translate(576px,32px)}
26.29%{transform:translate(576px,48px)}
26.76%{transform:translate(560px,48px)}
27.23%{transform:translate(560px,64px)}
27.7%{transform:translate(576px,64px)}
28.17%{transform:translate(576px,80px)}
31.46%{transform:translate(688px,80px)}
31.92%{transform:translate(688px,96px)}
34.27%{transform:translate(768px,96px)}
34.74%{transform:translate(768px,80px)}
35.21%{transform:translate(784px,80px)}
35.68%{transform:translate(784px,64px)}
36.15%{transform:translate(768px,64px)}
37.09%,46.48%{transform:translate(768px,32px)}
38.97%{transform:translate(832px,32px)}
40.38%{transform:translate(832px,80px)}
42.72%{transform:translate(752px,80px)}
44.6%{transform:translate(752px,16px)}
45.54%,63.38%{transform:translate(784px,16px)}
46.01%{transform:translate(784px,32px)}
47.42%,59.62%{transform:translate(768px,0px)}
48.36%{transform:translate(736px,0px)}
48.83%{transform:translate(736px,16px)}
49.3%{transform:translate(720px,16px)}
49.77%{transform:translate(720px,32px)}
50.23%,54.93%{transform:translate(736px,32px)}
50.7%{transform:translate(736px,48px)}
51.64%{transform:translate(704px,48px)}
52.11%{transform:translate(704px,64px)}
52.58%{transform:translate(720px,64px)}
53.05%{transform:translate(720px,80px)}
53.52%{transform:translate(736px,80px)}
56.34%{transform:translate(688px,32px)}
57.28%{transform:translate(688px,0px)}
60.09%{transform:translate(768px,-16px)}
61.5%{transform:translate(816px,-16px)}
61.97%{transform:translate(816px,0px)}
62.91%{transform:translate(784px,0px)}
63.85%{transform:translate(800px,16px)}
64.32%{transform:translate(800px,0px)}
70.89%{transform:translate(576px,0px)}
71.36%{transform:translate(576px,16px)}
71.83%,78.4%{transform:translate(560px,16px)}
73.71%{transform:translate(560px,80px)}
74.18%{transform:translate(544px,80px)}
74.65%{transform:translate(544px,96px)}
75.12%{transform:translate(560px,96px)}
77%{transform:translate(560px,32px)}
77.46%{transform:translate(544px,32px)}
77.93%{transform:translate(544px,16px)}
78.87%{transform:translate(560px,0px)}
81.22%{transform:translate(544px,64px)}
92.49%{transform:translate(160px,64px)}
92.96%{transform:translate(160px,48px)}
93.9%{transform:translate(128px,48px)}
94.37%{transform:translate(128px,32px)}
94.84%{transform:translate(112px,32px)}
95.31%{transform:translate(112px,16px)}
95.77%{transform:translate(96px,16px)}
96.24%{transform:translate(96px,0px)}
97.65%{transform:translate(48px,0px)}
98.12%{transform:translate(48px,-16px)}}
.s.s0{transform:translate(0px,-16px);animation-name:s0}
@keyframes s1{0%,99.53%{transform:translate(16px,-16px)}
0.47%{transform:translate(0px,-16px)}
0.94%{transform:translate(0px,0px)}
11.74%{transform:translate(368px,0px)}
14.55%{transform:translate(368px,96px)}
19.25%{transform:translate(528px,96px)}
22.07%{transform:translate(528px,0px)}
22.54%,79.81%{transform:translate(544px,0px)}
23%{transform:translate(544px,-16px)}
24.41%{transform:translate(592px,-16px)}
25.82%{transform:translate(592px,32px)}
26.29%{transform:translate(576px,32px)}
26.76%{transform:translate(576px,48px)}
27.23%{transform:translate(560px,48px)}
27.7%{transform:translate(560px,64px)}
28.17%{transform:translate(576px,64px)}
28.64%{transform:translate(576px,80px)}
31.92%{transform:translate(688px,80px)}
32.39%{transform:translate(688px,96px)}
34.74%{transform:translate(768px,96px)}
35.21%{transform:translate(768px,80px)}
35.68%{transform:translate(784px,80px)}
36.15%{transform:translate(784px,64px)}
36.62%{transform:translate(768px,64px)}
37.56%,46.95%{transform:translate(768px,32px)}
39.44%{transform:translate(832px,32px)}
40.85%{transform:translate(832px,80px)}
43.19%{transform:translate(752px,80px)}
45.07%{transform:translate(752px,16px)}
46.01%,63.85%{transform:translate(784px,16px)}
46.48%{transform:translate(784px,32px)}
47.89%,60.09%{transform:translate(768px,0px)}
48.83%{transform:translate(736px,0px)}
49.3%{transform:translate(736px,16px)}
49.77%{transform:translate(720px,16px)}
50.23%{transform:translate(720px,32px)}
50.7%,55.4%{transform:translate(736px,32px)}
51.17%{transform:translate(736px,48px)}
52.11%{transform:translate(704px,48px)}
52.58%{transform:translate(704px,64px)}
53.05%{transform:translate(720px,64px)}
53.52%{transform:translate(720px,80px)}
53.99%{transform:translate(736px,80px)}
56.81%{transform:translate(688px,32px)}
57.75%{transform:translate(688px,0px)}
60.56%{transform:translate(768px,-16px)}
61.97%{transform:translate(816px,-16px)}
62.44%{transform:translate(816px,0px)}
63.38%{transform:translate(784px,0px)}
64.32%{transform:translate(800px,16px)}
64.79%{transform:translate(800px,0px)}
71.36%{transform:translate(576px,0px)}
71.83%{transform:translate(576px,16px)}
72.3%,78.87%{transform:translate(560px,16px)}
74.18%{transform:translate(560px,80px)}
74.65%{transform:translate(544px,80px)}
75.12%{transform:translate(544px,96px)}
75.59%{transform:translate(560px,96px)}
77.46%{transform:translate(560px,32px)}
77.93%{transform:translate(544px,32px)}
78.4%{transform:translate(544px,16px)}
79.34%{transform:translate(560px,0px)}
81.69%{transform:translate(544px,64px)}
92.96%{transform:translate(160px,64px)}
93.43%{transform:translate(160px,48px)}
94.37%{transform:translate(128px,48px)}
94.84%{transform:translate(128px,32px)}
95.31%{transform:translate(112px,32px)}
95.77%{transform:translate(112px,16px)}
96.24%{transform:translate(96px,16px)}
96.71%{transform:translate(96px,0px)}
98.12%{transform:translate(48px,0px)}
98.59%{transform:translate(48px,-16px)}}
.s.s1{transform:translate(16px,-16px);animation-name:s1}
@keyframes s2{0%,99.53%{transform:translate(32px,-16px)}
0.94%{transform:translate(0px,-16px)}
1.41%{transform:translate(0px,0px)}
12.21%{transform:translate(368px,0px)}
15.02%{transform:translate(368px,96px)}
19.72%{transform:translate(528px,96px)}
22.54%{transform:translate(528px,0px)}
23%,80.28%{transform:translate(544px,0px)}
23.47%{transform:translate(544px,-16px)}
24.88%{transform:translate(592px,-16px)}
26.29%{transform:translate(592px,32px)}
26.76%{transform:translate(576px,32px)}
27.23%{transform:translate(576px,48px)}
27.7%{transform:translate(560px,48px)}
28.17%{transform:translate(560px,64px)}
28.64%{transform:translate(576px,64px)}
29.11%{transform:translate(576px,80px)}
32.39%{transform:translate(688px,80px)}
32.86%{transform:translate(688px,96px)}
35.21%{transform:translate(768px,96px)}
35.68%{transform:translate(768px,80px)}
36.15%{transform:translate(784px,80px)}
36.62%{transform:translate(784px,64px)}
37.09%{transform:translate(768px,64px)}
38.03%,47.42%{transform:translate(768px,32px)}
39.91%{transform:translate(832px,32px)}
41.31%{transform:translate(832px,80px)}
43.66%{transform:translate(752px,80px)}
45.54%{transform:translate(752px,16px)}
46.48%,64.32%{transform:translate(784px,16px)}
46.95%{transform:translate(784px,32px)}
48.36%,60.56%{transform:translate(768px,0px)}
49.3%{transform:translate(736px,0px)}
49.77%{transform:translate(736px,16px)}
50.23%{transform:translate(720px,16px)}
50.7%{transform:translate(720px,32px)}
51.17%,55.87%{transform:translate(736px,32px)}
51.64%{transform:translate(736px,48px)}
52.58%{transform:translate(704px,48px)}
53.05%{transform:translate(704px,64px)}
53.52%{transform:translate(720px,64px)}
53.99%{transform:translate(720px,80px)}
54.46%{transform:translate(736px,80px)}
57.28%{transform:translate(688px,32px)}
58.22%{transform:translate(688px,0px)}
61.03%{transform:translate(768px,-16px)}
62.44%{transform:translate(816px,-16px)}
62.91%{transform:translate(816px,0px)}
63.85%{transform:translate(784px,0px)}
64.79%{transform:translate(800px,16px)}
65.26%{transform:translate(800px,0px)}
71.83%{transform:translate(576px,0px)}
72.3%{transform:translate(576px,16px)}
72.77%,79.34%{transform:translate(560px,16px)}
74.65%{transform:translate(560px,80px)}
75.12%{transform:translate(544px,80px)}
75.59%{transform:translate(544px,96px)}
76.06%{transform:translate(560px,96px)}
77.93%{transform:translate(560px,32px)}
78.4%{transform:translate(544px,32px)}
78.87%{transform:translate(544px,16px)}
79.81%{transform:translate(560px,0px)}
82.16%{transform:translate(544px,64px)}
93.43%{transform:translate(160px,64px)}
93.9%{transform:translate(160px,48px)}
94.84%{transform:translate(128px,48px)}
95.31%{transform:translate(128px,32px)}
95.77%{transform:translate(112px,32px)}
96.24%{transform:translate(112px,16px)}
96.71%{transform:translate(96px,16px)}
97.18%{transform:translate(96px,0px)}
98.59%{transform:translate(48px,0px)}
99.06%{transform:translate(48px,-16px)}}
.s.s2{transform:translate(32px,-16px);animation-name:s2}
@keyframes s3{0%,99.53%{transform:translate(48px,-16px)}
1.41%{transform:translate(0px,-16px)}
1.88%{transform:translate(0px,0px)}
12.68%{transform:translate(368px,0px)}
15.49%{transform:translate(368px,96px)}
20.19%{transform:translate(528px,96px)}
23%{transform:translate(528px,0px)}
23.47%,80.75%{transform:translate(544px,0px)}
23.94%{transform:translate(544px,-16px)}
25.35%{transform:translate(592px,-16px)}
26.76%{transform:translate(592px,32px)}
27.23%{transform:translate(576px,32px)}
27.7%{transform:translate(576px,48px)}
28.17%{transform:translate(560px,48px)}
28.64%{transform:translate(560px,64px)}
29.11%{transform:translate(576px,64px)}
29.58%{transform:translate(576px,80px)}
32.86%{transform:translate(688px,80px)}
33.33%{transform:translate(688px,96px)}
35.68%{transform:translate(768px,96px)}
36.15%{transform:translate(768px,80px)}
36.62%{transform:translate(784px,80px)}
37.09%{transform:translate(784px,64px)}
37.56%{transform:translate(768px,64px)}
38.5%,47.89%{transform:translate(768px,32px)}
40.38%{transform:translate(832px,32px)}
41.78%{transform:translate(832px,80px)}
44.13%{transform:translate(752px,80px)}
46.01%{transform:translate(752px,16px)}
46.95%,64.79%{transform:translate(784px,16px)}
47.42%{transform:translate(784px,32px)}
48.83%,61.03%{transform:translate(768px,0px)}
49.77%{transform:translate(736px,0px)}
50.23%{transform:translate(736px,16px)}
50.7%{transform:translate(720px,16px)}
51.17%{transform:translate(720px,32px)}
51.64%,56.34%{transform:translate(736px,32px)}
52.11%{transform:translate(736px,48px)}
53.05%{transform:translate(704px,48px)}
53.52%{transform:translate(704px,64px)}
53.99%{transform:translate(720px,64px)}
54.46%{transform:translate(720px,80px)}
54.93%{transform:translate(736px,80px)}
57.75%{transform:translate(688px,32px)}
58.69%{transform:translate(688px,0px)}
61.5%{transform:translate(768px,-16px)}
62.91%{transform:translate(816px,-16px)}
63.38%{transform:translate(816px,0px)}
64.32%{transform:translate(784px,0px)}
65.26%{transform:translate(800px,16px)}
65.73%{transform:translate(800px,0px)}
72.3%{transform:translate(576px,0px)}
72.77%{transform:translate(576px,16px)}
73.24%,79.81%{transform:translate(560px,16px)}
75.12%{transform:translate(560px,80px)}
75.59%{transform:translate(544px,80px)}
76.06%{transform:translate(544px,96px)}
76.53%{transform:translate(560px,96px)}
78.4%{transform:translate(560px,32px)}
78.87%{transform:translate(544px,32px)}
79.34%{transform:translate(544px,16px)}
80.28%{transform:translate(560px,0px)}
82.63%{transform:translate(544px,64px)}
93.9%{transform:translate(160px,64px)}
94.37%{transform:translate(160px,48px)}
95.31%{transform:translate(128px,48px)}
95.77%{transform:translate(128px,32px)}
96.24%{transform:translate(112px,32px)}
96.71%{transform:translate(112px,16px)}
97.18%{transform:translate(96px,16px)}
97.65%{transform:translate(96px,0px)}
99.06%{transform:translate(48px,0px)}}
.s.s3{transform:translate(48px,-16px);animation-name:s3}</style>
  </defs>
  <g>
    <rect class="c" x="2" y="2" rx="2" ry="2"/><rect class="c" x="2" y="18" rx="2" ry="2"/><rect class="c" x="2" y="34" rx="2" ry="2"/><rect class="c" x="2" y="50" rx="2" ry="2"/><rect class="c" x="2" y="66" rx="2" ry="2"/><rect class="c" x="2" y="82" rx="2" ry="2"/><rect class="c" x="2" y="98" rx="2" ry="2"/><rect class="c" x="18" y="2" rx="2" ry="2"/><rect class="c" x="18" y="18" rx="2" ry="2"/><rect class="c" x="18" y="34" rx="2" ry="2"/><rect class="c" x="18" y="50" rx="2" ry="2"/><rect class="c" x="18" y="66" rx="2" ry="2"/><rect class="c" x="18" y="82" rx="2" ry="2"/><rect class="c" x="18" y="98" rx="2" ry="2"/><rect class="c" x="34" y="2" rx="2" ry="2"/><rect class="c" x="34" y="18" rx="2" ry="2"/><rect class="c" x="34" y="34" rx="2" ry="2"/><rect class="c" x="34" y="50" rx="2" ry="2"/><rect class="c" x="34" y="66" rx="2" ry="2"/><rect class="c" x="34" y="82" rx="2" ry="2"/><rect class="c" x="34" y="98" rx="2" ry="2"/><rect class="c" x="50" y="2" rx="2" ry="2"/><rect class="c" x="50" y="18" rx="2" ry="2"/><rect class="c" x="50" y="34" rx="2" ry="2"/><rect class="c" x="50" y="50" rx="2" ry="2"/><rect class="c" x="50" y="66" rx="2" ry="2"/><rect class="c" x="50" y="82" rx="2" ry="2"/><rect class="c" x="50" y="98" rx="2" ry="2"/><rect class="c" x="66" y="2" rx="2" ry="2"/><rect class="c" x="66" y="18" rx="2" ry="2"/><rect class="c" x="66" y="34" rx="2" ry="2"/><rect class="c" x="66" y="50" rx="2" ry="2"/><rect class="c" x="66" y="66" rx="2" ry="2"/><rect class="c" x="66" y="82" rx="2" ry="2"/><rect class="c" x="66" y="98" rx="2" ry="2"/><rect class="c" x="82" y="2" rx="2" ry="2"/><rect class="c" x="82" y="18" rx="2" ry="2"/><rect class="c" x="82" y="34" rx="2" ry="2"/><rect class="c" x="82" y="50" rx="2" ry="2"/><rect class="c" x="82" y="66" rx="2" ry="2"/><rect class="c" x="82" y="82" rx="2" ry="2"/><rect class="c" x="82" y="98" rx="2" ry="2"/><rect class="c" x="98" y="2" rx="2" ry="2"/><rect class="c" x="98" y="18" rx="2" ry="2"/><rect class="c" x="98" y="34" rx="2" ry="2"/><rect class="c" x="98" y="50" rx="2" ry="2"/><rect class="c" x="98" y="66" rx="2" ry="2"/><rect class="c" x="98" y="82" rx="2" ry="2"/><rect class="c" x="98" y="98" rx="2" ry="2"/><rect class="c" x="114" y="2" rx="2" ry="2"/><rect class="c" x="114" y="18" rx="2" ry="2"/><rect class="c" x="114" y="34" rx="2" ry="2"/><rect class="c" x="114" y="50" rx="2" ry="2"/><rect class="c" x="114" y="66" rx="2" ry="2"/><rect class="c" x="114" y="82" rx="2" ry="2"/><rect class="c" x="114" y="98" rx="2" ry="2"/><rect class="c" x="130" y="2" rx="2" ry="2"/><rect class="c" x="130" y="18" rx="2" ry="2"/><rect class="c" x="130" y="34" rx="2" ry="2"/><rect class="c" x="130" y="50" rx="2" ry="2"/><rect class="c" x="130" y="66" rx="2" ry="2"/><rect class="c" x="130" y="82" rx="2" ry="2"/><rect class="c" x="130" y="98" rx="2" ry="2"/><rect class="c" x="146" y="2" rx="2" ry="2"/><rect class="c" x="146" y="18" rx="2" ry="2"/><rect class="c" x="146" y="34" rx="2" ry="2"/><rect class="c" x="146" y="50" rx="2" ry="2"/><rect class="c" x="146" y="66" rx="2" ry="2"/><rect class="c" x="146" y="82" rx="2" ry="2"/><rect class="c" x="146" y="98" rx="2" ry="2"/><rect class="c" x="162" y="2" rx="2" ry="2"/><rect class="c" x="162" y="18" rx="2" ry="2"/><rect class="c" x="162" y="34" rx="2" ry="2"/><rect class="c" x="162" y="50" rx="2" ry="2"/><rect class="c" x="162" y="66" rx="2" ry="2"/><rect class="c" x="162" y="82" rx="2" ry="2"/><rect class="c" x="162" y="98" rx="2" ry="2"/><rect class="c" x="178" y="2" rx="2" ry="2"/><rect class="c" x="178" y="18" rx="2" ry="2"/><rect class="c" x="178" y="34" rx="2" ry="2"/><rect class="c" x="178" y="50" rx="2" ry="2"/><rect class="c" x="178" y="66" rx="2" ry="2"/><rect class="c" x="178" y="82" rx="2" ry="2"/><rect class="c" x="178" y="98" rx="2" ry="2"/><rect class="c" x="194" y="2" rx="2" ry="2"/><rect class="c" x="194" y="18" rx="2" ry="2"/><rect class="c" x="194" y="34" rx="2" ry="2"/><rect class="c" x="194" y="50" rx="2" ry="2"/><rect class="c" x="194" y="66" rx="2" ry="2"/><rect class="c" x="194" y="82" rx="2" ry="2"/><rect class="c" x="194" y="98" rx="2" ry="2"/><rect class="c" x="210" y="2" rx="2" ry="2"/><rect class="c" x="210" y="18" rx="2" ry="2"/><rect class="c" x="210" y="34" rx="2" ry="2"/><rect class="c" x="210" y="50" rx="2" ry="2"/><rect class="c" x="210" y="66" rx="2" ry="2"/><rect class="c" x="210" y="82" rx="2" ry="2"/><rect class="c" x="210" y="98" rx="2" ry="2"/><rect class="c" x="226" y="2" rx="2" ry="2"/><rect class="c" x="226" y="18" rx="2" ry="2"/><rect class="c" x="226" y="34" rx="2" ry="2"/><rect class="c" x="226" y="50" rx="2" ry="2"/><rect class="c" x="226" y="66" rx="2" ry="2"/><rect class="c" x="226" y="82" rx="2" ry="2"/><rect class="c" x="226" y="98" rx="2" ry="2"/><rect class="c" x="242" y="2" rx="2" ry="2"/><rect class="c" x="242" y="18" rx="2" ry="2"/><rect class="c" x="242" y="34" rx="2" ry="2"/><rect class="c" x="242" y="50" rx="2" ry="2"/><rect class="c" x="242" y="66" rx="2" ry="2"/><rect class="c" x="242" y="82" rx="2" ry="2"/><rect class="c" x="242" y="98" rx="2" ry="2"/><rect class="c" x="258" y="2" rx="2" ry="2"/><rect class="c" x="258" y="18" rx="2" ry="2"/><rect class="c" x="258" y="34" rx="2" ry="2"/><rect class="c" x="258" y="50" rx="2" ry="2"/><rect class="c" x="258" y="66" rx="2" ry="2"/><rect class="c" x="258" y="82" rx="2" ry="2"/><rect class="c" x="258" y="98" rx="2" ry="2"/><rect class="c" x="274" y="2" rx="2" ry="2"/><rect class="c" x="274" y="18" rx="2" ry="2"/><rect class="c" x="274" y="34" rx="2" ry="2"/><rect class="c" x="274" y="50" rx="2" ry="2"/><rect class="c" x="274" y="66" rx="2" ry="2"/><rect class="c" x="274" y="82" rx="2" ry="2"/><rect class="c" x="274" y="98" rx="2" ry="2"/><rect class="c" x="290" y="2" rx="2" ry="2"/><rect class="c" x="290" y="18" rx="2" ry="2"/><rect class="c" x="290" y="34" rx="2" ry="2"/><rect class="c" x="290" y="50" rx="2" ry="2"/><rect class="c" x="290" y="66" rx="2" ry="2"/><rect class="c" x="290" y="82" rx="2" ry="2"/><rect class="c" x="290" y="98" rx="2" ry="2"/><rect class="c" x="306" y="2" rx="2" ry="2"/><rect class="c" x="306" y="18" rx="2" ry="2"/><rect class="c" x="306" y="34" rx="2" ry="2"/><rect class="c" x="306" y="50" rx="2" ry="2"/><rect class="c" x="306" y="66" rx="2" ry="2"/><rect class="c" x="306" y="82" rx="2" ry="2"/><rect class="c" x="306" y="98" rx="2" ry="2"/><rect class="c" x="322" y="2" rx="2" ry="2"/><rect class="c" x="322" y="18" rx="2" ry="2"/><rect class="c" x="322" y="34" rx="2" ry="2"/><rect class="c" x="322" y="50" rx="2" ry="2"/><rect class="c" x="322" y="66" rx="2" ry="2"/><rect class="c" x="322" y="82" rx="2" ry="2"/><rect class="c" x="322" y="98" rx="2" ry="2"/><rect class="c" x="338" y="2" rx="2" ry="2"/><rect class="c" x="338" y="18" rx="2" ry="2"/><rect class="c" x="338" y="34" rx="2" ry="2"/><rect class="c" x="338" y="50" rx="2" ry="2"/><rect class="c" x="338" y="66" rx="2" ry="2"/><rect class="c" x="338" y="82" rx="2" ry="2"/><rect class="c" x="338" y="98" rx="2" ry="2"/><rect class="c" x="354" y="2" rx="2" ry="2"/><rect class="c" x="354" y="18" rx="2" ry="2"/><rect class="c" x="354" y="34" rx="2" ry="2"/><rect class="c" x="354" y="50" rx="2" ry="2"/><rect class="c" x="354" y="66" rx="2" ry="2"/><rect class="c" x="354" y="82" rx="2" ry="2"/><rect class="c" x="354" y="98" rx="2" ry="2"/><rect class="c" x="370" y="2" rx="2" ry="2"/><rect class="c" x="370" y="18" rx="2" ry="2"/><rect class="c" x="370" y="34" rx="2" ry="2"/><rect class="c" x="370" y="50" rx="2" ry="2"/><rect class="c" x="370" y="66" rx="2" ry="2"/><rect class="c c0" x="370" y="82" rx="2" ry="2"/><rect class="c c1" x="370" y="98" rx="2" ry="2"/><rect class="c" x="386" y="2" rx="2" ry="2"/><rect class="c" x="386" y="18" rx="2" ry="2"/><rect class="c" x="386" y="34" rx="2" ry="2"/><rect class="c" x="386" y="50" rx="2" ry="2"/><rect class="c" x="386" y="66" rx="2" ry="2"/><rect class="c" x="386" y="82" rx="2" ry="2"/><rect class="c" x="386" y="98" rx="2" ry="2"/><rect class="c" x="402" y="2" rx="2" ry="2"/><rect class="c" x="402" y="18" rx="2" ry="2"/><rect class="c" x="402" y="34" rx="2" ry="2"/><rect class="c" x="402" y="50" rx="2" ry="2"/><rect class="c" x="402" y="66" rx="2" ry="2"/><rect class="c" x="402" y="82" rx="2" ry="2"/><rect class="c" x="402" y="98" rx="2" ry="2"/><rect class="c" x="418" y="2" rx="2" ry="2"/><rect class="c" x="418" y="18" rx="2" ry="2"/><rect class="c" x="418" y="34" rx="2" ry="2"/><rect class="c" x="418" y="50" rx="2" ry="2"/><rect class="c" x="418" y="66" rx="2" ry="2"/><rect class="c" x="418" y="82" rx="2" ry="2"/><rect class="c" x="418" y="98" rx="2" ry="2"/><rect class="c" x="434" y="2" rx="2" ry="2"/><rect class="c" x="434" y="18" rx="2" ry="2"/><rect class="c" x="434" y="34" rx="2" ry="2"/><rect class="c" x="434" y="50" rx="2" ry="2"/><rect class="c" x="434" y="66" rx="2" ry="2"/><rect class="c" x="434" y="82" rx="2" ry="2"/><rect class="c" x="434" y="98" rx="2" ry="2"/><rect class="c" x="450" y="2" rx="2" ry="2"/><rect class="c" x="450" y="18" rx="2" ry="2"/><rect class="c" x="450" y="34" rx="2" ry="2"/><rect class="c" x="450" y="50" rx="2" ry="2"/><rect class="c" x="450" y="66" rx="2" ry="2"/><rect class="c" x="450" y="82" rx="2" ry="2"/><rect class="c" x="450" y="98" rx="2" ry="2"/><rect class="c" x="466" y="2" rx="2" ry="2"/><rect class="c" x="466" y="18" rx="2" ry="2"/><rect class="c" x="466" y="34" rx="2" ry="2"/><rect class="c" x="466" y="50" rx="2" ry="2"/><rect class="c" x="466" y="66" rx="2" ry="2"/><rect class="c" x="466" y="82" rx="2" ry="2"/><rect class="c" x="466" y="98" rx="2" ry="2"/><rect class="c" x="482" y="2" rx="2" ry="2"/><rect class="c" x="482" y="18" rx="2" ry="2"/><rect class="c" x="482" y="34" rx="2" ry="2"/><rect class="c" x="482" y="50" rx="2" ry="2"/><rect class="c" x="482" y="66" rx="2" ry="2"/><rect class="c" x="482" y="82" rx="2" ry="2"/><rect class="c" x="482" y="98" rx="2" ry="2"/><rect class="c" x="498" y="2" rx="2" ry="2"/><rect class="c" x="498" y="18" rx="2" ry="2"/><rect class="c" x="498" y="34" rx="2" ry="2"/><rect class="c" x="498" y="50" rx="2" ry="2"/><rect class="c" x="498" y="66" rx="2" ry="2"/><rect class="c" x="498" y="82" rx="2" ry="2"/><rect class="c" x="498" y="98" rx="2" ry="2"/><rect class="c" x="514" y="2" rx="2" ry="2"/><rect class="c" x="514" y="18" rx="2" ry="2"/><rect class="c" x="514" y="34" rx="2" ry="2"/><rect class="c" x="514" y="50" rx="2" ry="2"/><rect class="c" x="514" y="66" rx="2" ry="2"/><rect class="c" x="514" y="82" rx="2" ry="2"/><rect class="c" x="514" y="98" rx="2" ry="2"/><rect class="c c2" x="530" y="2" rx="2" ry="2"/><rect class="c" x="530" y="18" rx="2" ry="2"/><rect class="c" x="530" y="34" rx="2" ry="2"/><rect class="c c3" x="530" y="50" rx="2" ry="2"/><rect class="c c4" x="530" y="66" rx="2" ry="2"/><rect class="c" x="530" y="82" rx="2" ry="2"/><rect class="c" x="530" y="98" rx="2" ry="2"/><rect class="c" x="546" y="2" rx="2" ry="2"/><rect class="c c5" x="546" y="18" rx="2" ry="2"/><rect class="c c6" x="546" y="34" rx="2" ry="2"/><rect class="c c7" x="546" y="50" rx="2" ry="2"/><rect class="c c8" x="546" y="66" rx="2" ry="2"/><rect class="c c9" x="546" y="82" rx="2" ry="2"/><rect class="c" x="546" y="98" rx="2" ry="2"/><rect class="c ca" x="562" y="2" rx="2" ry="2"/><rect class="c" x="562" y="18" rx="2" ry="2"/><rect class="c" x="562" y="34" rx="2" ry="2"/><rect class="c cb" x="562" y="50" rx="2" ry="2"/><rect class="c cc" x="562" y="66" rx="2" ry="2"/><rect class="c cd" x="562" y="82" rx="2" ry="2"/><rect class="c ce" x="562" y="98" rx="2" ry="2"/><rect class="c cf" x="578" y="2" rx="2" ry="2"/><rect class="c cg" x="578" y="18" rx="2" ry="2"/><rect class="c ch" x="578" y="34" rx="2" ry="2"/><rect class="c ci" x="578" y="50" rx="2" ry="2"/><rect class="c cj" x="578" y="66" rx="2" ry="2"/><rect class="c ck" x="578" y="82" rx="2" ry="2"/><rect class="c" x="578" y="98" rx="2" ry="2"/><rect class="c" x="594" y="2" rx="2" ry="2"/><rect class="c" x="594" y="18" rx="2" ry="2"/><rect class="c" x="594" y="34" rx="2" ry="2"/><rect class="c" x="594" y="50" rx="2" ry="2"/><rect class="c" x="594" y="66" rx="2" ry="2"/><rect class="c" x="594" y="82" rx="2" ry="2"/><rect class="c" x="594" y="98" rx="2" ry="2"/><rect class="c" x="610" y="2" rx="2" ry="2"/><rect class="c" x="610" y="18" rx="2" ry="2"/><rect class="c" x="610" y="34" rx="2" ry="2"/><rect class="c" x="610" y="50" rx="2" ry="2"/><rect class="c" x="610" y="66" rx="2" ry="2"/><rect class="c" x="610" y="82" rx="2" ry="2"/><rect class="c" x="610" y="98" rx="2" ry="2"/><rect class="c" x="626" y="2" rx="2" ry="2"/><rect class="c" x="626" y="18" rx="2" ry="2"/><rect class="c" x="626" y="34" rx="2" ry="2"/><rect class="c" x="626" y="50" rx="2" ry="2"/><rect class="c" x="626" y="66" rx="2" ry="2"/><rect class="c" x="626" y="82" rx="2" ry="2"/><rect class="c" x="626" y="98" rx="2" ry="2"/><rect class="c" x="642" y="2" rx="2" ry="2"/><rect class="c" x="642" y="18" rx="2" ry="2"/><rect class="c" x="642" y="34" rx="2" ry="2"/><rect class="c" x="642" y="50" rx="2" ry="2"/><rect class="c" x="642" y="66" rx="2" ry="2"/><rect class="c" x="642" y="82" rx="2" ry="2"/><rect class="c" x="642" y="98" rx="2" ry="2"/><rect class="c" x="658" y="2" rx="2" ry="2"/><rect class="c" x="658" y="18" rx="2" ry="2"/><rect class="c" x="658" y="34" rx="2" ry="2"/><rect class="c" x="658" y="50" rx="2" ry="2"/><rect class="c" x="658" y="66" rx="2" ry="2"/><rect class="c" x="658" y="82" rx="2" ry="2"/><rect class="c" x="658" y="98" rx="2" ry="2"/><rect class="c" x="674" y="2" rx="2" ry="2"/><rect class="c" x="674" y="18" rx="2" ry="2"/><rect class="c" x="674" y="34" rx="2" ry="2"/><rect class="c" x="674" y="50" rx="2" ry="2"/><rect class="c" x="674" y="66" rx="2" ry="2"/><rect class="c" x="674" y="82" rx="2" ry="2"/><rect class="c" x="674" y="98" rx="2" ry="2"/><rect class="c cl" x="690" y="2" rx="2" ry="2"/><rect class="c cm" x="690" y="18" rx="2" ry="2"/><rect class="c cn" x="690" y="34" rx="2" ry="2"/><rect class="c" x="690" y="50" rx="2" ry="2"/><rect class="c" x="690" y="66" rx="2" ry="2"/><rect class="c co" x="690" y="82" rx="2" ry="2"/><rect class="c cp" x="690" y="98" rx="2" ry="2"/><rect class="c cq" x="706" y="2" rx="2" ry="2"/><rect class="c" x="706" y="18" rx="2" ry="2"/><rect class="c" x="706" y="34" rx="2" ry="2"/><rect class="c" x="706" y="50" rx="2" ry="2"/><rect class="c cr" x="706" y="66" rx="2" ry="2"/><rect class="c" x="706" y="82" rx="2" ry="2"/><rect class="c" x="706" y="98" rx="2" ry="2"/><rect class="c" x="722" y="2" rx="2" ry="2"/><rect class="c cs" x="722" y="18" rx="2" ry="2"/><rect class="c ct" x="722" y="34" rx="2" ry="2"/><rect class="c cu" x="722" y="50" rx="2" ry="2"/><rect class="c" x="722" y="66" rx="2" ry="2"/><rect class="c cv" x="722" y="82" rx="2" ry="2"/><rect class="c" x="722" y="98" rx="2" ry="2"/><rect class="c cw" x="738" y="2" rx="2" ry="2"/><rect class="c cx" x="738" y="18" rx="2" ry="2"/><rect class="c cy" x="738" y="34" rx="2" ry="2"/><rect class="c cz" x="738" y="50" rx="2" ry="2"/><rect class="c" x="738" y="66" rx="2" ry="2"/><rect class="c c10" x="738" y="82" rx="2" ry="2"/><rect class="c c11" x="738" y="98" rx="2" ry="2"/><rect class="c c12" x="754" y="2" rx="2" ry="2"/><rect class="c c13" x="754" y="18" rx="2" ry="2"/><rect class="c c14" x="754" y="34" rx="2" ry="2"/><rect class="c" x="754" y="50" rx="2" ry="2"/><rect class="c c15" x="754" y="66" rx="2" ry="2"/><rect class="c c16" x="754" y="82" rx="2" ry="2"/><rect class="c c17" x="754" y="98" rx="2" ry="2"/><rect class="c c18" x="770" y="2" rx="2" ry="2"/><rect class="c c19" x="770" y="18" rx="2" ry="2"/><rect class="c c1a" x="770" y="34" rx="2" ry="2"/><rect class="c c1b" x="770" y="50" rx="2" ry="2"/><rect class="c c1c" x="770" y="66" rx="2" ry="2"/><rect class="c c1d" x="770" y="82" rx="2" ry="2"/><rect class="c c1e" x="770" y="98" rx="2" ry="2"/><rect class="c c1f" x="786" y="2" rx="2" ry="2"/><rect class="c c1g" x="786" y="18" rx="2" ry="2"/><rect class="c c1h" x="786" y="34" rx="2" ry="2"/><rect class="c" x="786" y="50" rx="2" ry="2"/><rect class="c" x="786" y="66" rx="2" ry="2"/><rect class="c c1i" x="786" y="82" rx="2" ry="2"/><rect class="c" x="786" y="98" rx="2" ry="2"/><rect class="c c1j" x="802" y="2" rx="2" ry="2"/><rect class="c c1k" x="802" y="18" rx="2" ry="2"/><rect class="c c1l" x="802" y="34" rx="2" ry="2"/><rect class="c" x="802" y="50" rx="2" ry="2"/><rect class="c" x="802" y="66" rx="2" ry="2"/><rect class="c" x="802" y="82" rx="2" ry="2"/><rect class="c" x="802" y="98" rx="2" ry="2"/><rect class="c c1m" x="818" y="2" rx="2" ry="2"/><rect class="c" x="818" y="18" rx="2" ry="2"/><rect class="c" x="818" y="34" rx="2" ry="2"/><rect class="c" x="818" y="50" rx="2" ry="2"/><rect class="c" x="818" y="66" rx="2" ry="2"/><rect class="c" x="818" y="82" rx="2" ry="2"/><rect class="c" x="818" y="98" rx="2" ry="2"/><rect class="c" x="834" y="2" rx="2" ry="2"/><rect class="c" x="834" y="18" rx="2" ry="2"/><rect class="c c1n" x="834" y="34" rx="2" ry="2"/><rect class="c c1o" x="834" y="50" rx="2" ry="2"/><rect class="c c1p" x="834" y="66" rx="2" ry="2"/><rect class="c c1q" x="834" y="82" rx="2" ry="2"/><rect class="u u0" height="12" width="673.6" x="0.0" y="144"/><rect class="u u1" height="12" width="108.3" x="673.0" y="144"/><rect class="u u2" height="12" width="41.0" x="780.7" y="144"/><rect class="u u3" height="12" width="27.5" x="821.1" y="144"/><rect class="s s0" x="0.8" y="0.8" width="14.4" height="14.4" rx="4.5" ry="4.5"/><rect class="s s1" x="1.8" y="1.8" width="12.3" height="12.3" rx="4.1" ry="4.1"/><rect class="s s2" x="2.6" y="2.6" width="10.8" height="10.8" rx="3.6" ry="3.6"/><rect class="s s3" x="3.0" y="3.0" width="9.9" height="9.9" rx="3.3" ry="3.3"/>
  </g>
</svg></g>

  <rect x="20" y="688" width="85" height="14" rx="3" fill="#3c3836"/>
  <rect x="109" y="688" width="85" height="14" rx="3" fill="#fb4934"/>
  <rect x="198" y="688" width="85" height="14" rx="3" fill="#b8bb26"/>
  <rect x="287" y="688" width="85" height="14" rx="3" fill="#fabd2f"/>
  <rect x="376" y="688" width="85" height="14" rx="3" fill="#83a598"/>
  <rect x="465" y="688" width="85" height="14" rx="3" fill="#d3869b"/>
  <rect x="554" y="688" width="85" height="14" rx="3" fill="#8ec07c"/>
  <rect x="643" y="688" width="85" height="14" rx="3" fill="#ebdbb2"/>

  <text x="20" y="726" font-size="12">
    <tspan fill="#b8bb26">arg9244@github</tspan>
    <tspan fill="#928374" xml:space="preserve"> ~ </tspan>
    <tspan fill="#83a598">❯ </tspan>
    <tspan class="cursor">▋</tspan>
  </text>
</svg>